<svg viewBox="0 0 301 141">
  <path d="M34.4131 23.0439V24.0439H11.8047V23.0439H34.4131Z" />
  <path d="M41.3701 28.2607V29.2607H11.8047V28.2607H41.3701Z" />
  <path d="M61.3701 33.4785V34.4785H11.8047V33.4785H61.3701Z" />
  <path d="M78.7607 38.6953V39.6953H11.8047V38.6953H78.7607Z" />
  <path d="M61.3682 43.9131L61.3682 44.9131L18.7598 44.9131L18.7598 43.9131L61.3682 43.9131Z"
  />
  <path d="M53.542 49.1309L53.542 50.1309L18.7598 50.1309L18.7598 49.1309L53.542 49.1309Z"
  />
  <path d="M76.1533 54.3477L76.1533 55.3477L26.5879 55.3477L26.5879 54.3477L76.1533 54.3477Z"
  />
  <path d="M90.0664 59.5644L90.0664 60.5644L26.5879 60.5645L26.5879 59.5645L90.0664 59.5644Z"
  />
  <path d="M78.7617 64.7822L78.7617 65.7822L26.5879 65.7822L26.5879 64.7822L78.7617 64.7822Z"
  />
  <path d="M98.7617 70L98.7617 71L26.5879 71L26.5879 70L98.7617 70Z" />
  <path d="M83.9795 75.2178L83.9795 76.2178L26.5879 76.2178L26.5879 75.2178L83.9795 75.2178Z"
  />
  <path d="M64.8486 80.4346L64.8486 81.4346L26.5879 81.4346L26.5879 80.4346L64.8486 80.4346Z"
  />
  <path d="M78.7617 85.6523L78.7617 86.6523L26.5879 86.6523L26.5879 85.6523L78.7617 85.6523Z"
  />
  <path d="M86.5859 90.8691L86.5859 91.8691L18.7598 91.8691L18.7598 90.8691L86.5859 90.8691Z"
  />
  <path d="M73.542 96.0869L73.542 97.0869L18.7598 97.0869L18.7598 96.0869L73.542 96.0869Z"
  />
  <path d="M50.9336 101.304L50.9336 102.304L18.7598 102.304L18.7598 101.304L50.9336 101.304Z"
  />
  <path d="M82.2393 106.521L82.2393 107.521L11.8047 107.521L11.8047 106.521L82.2393 106.521Z"
  />
  <path d="M45.7178 111.739L45.7178 112.739L11.8047 112.739L11.8047 111.739L45.7178 111.739Z"
  />
  <path d="M39.6309 116.956L39.6309 117.956L11.8047 117.956L11.8047 116.956L39.6309 116.956Z"
  />
  <path
    d="M13.8965 10.8535L10.7715 13.9775L13.8965 17.1025L13.543 17.4561L13.1895 17.8105L9.35742 13.9785L13.1895 10.1465L13.8965 10.8535Z"
  />
  <path
    d="M23.625 17.1035L26.75 13.9795L23.625 10.8545L23.9785 10.501L24.332 10.1465L28.1641 13.9785L24.332 17.8105L23.625 17.1035Z"
  />
  <path
    d="M23.625 130.146L26.75 127.022L23.625 123.897L23.9785 123.544L24.332 123.189L28.1641 127.021L24.332 130.854L23.625 130.146Z"
  />
  <path
    d="M13.8965 123.897L10.7715 127.021L13.8965 130.146L13.543 130.5L13.1895 130.854L9.35742 127.022L13.1895 123.19L13.8965 123.897Z"
  />
  <path
    d="M21.3643 10.7568L17.4512 17.2793L17.0225 17.0215L16.5938 16.7646L20.5068 10.2432L21.3643 10.7568Z"
  />
  <path
    d="M21.3643 123.801L17.4512 130.323L17.0225 130.065L16.5938 129.809L20.5068 123.287L21.3643 123.801Z"
  />
  <path d="M1 10.5V130.5H0V10.5H1Z" />
  <path
    d="M299.501 2.09961C299.501 1.49222 299.009 1 298.401 1H109.385C108.777 1 108.285 1.49222 108.285 2.09961V121.08C108.285 121.687 108.777 122.179 109.385 122.179H298.401C299.009 122.179 299.501 121.687 299.501 121.08V2.09961ZM300.501 121.08C300.501 122.24 299.561 123.179 298.401 123.179H109.385C108.225 123.179 107.285 122.24 107.285 121.08V2.09961C107.285 0.939936 108.225 0 109.385 0H298.401C299.561 0 300.501 0.939936 300.501 2.09961V121.08Z"
  />
  <path
    d="M215.022 122.237C215.299 122.237 215.522 122.461 215.522 122.737V135.15C215.522 135.427 215.299 135.65 215.022 135.65H192.762C192.486 135.65 192.262 135.427 192.262 135.15V122.737C192.262 122.461 192.486 122.237 192.762 122.237H215.022ZM193.262 134.65H214.522V123.237H193.262V134.65Z"
  />
  <path
    d="M230.654 134.649C230.788 134.649 230.916 134.703 231.01 134.798L236.295 140.148C236.436 140.292 236.478 140.507 236.4 140.693C236.322 140.879 236.14 141 235.938 141H171.846C171.651 141 171.474 140.887 171.392 140.711C171.31 140.535 171.338 140.327 171.463 140.179L175.956 134.828C176.051 134.715 176.191 134.65 176.339 134.649H230.654ZM172.918 140H234.742L230.445 135.649H176.572L172.918 140Z"
  />
  <path
    d="M294.895 7.27734C294.895 6.66996 294.402 6.17773 293.795 6.17773H114.229C113.621 6.17773 113.129 6.66996 113.129 7.27734V115.88C113.129 116.487 113.621 116.979 114.229 116.979H293.795C294.402 116.979 294.895 116.487 294.895 115.88V7.27734ZM295.895 115.88C295.895 117.04 294.955 117.979 293.795 117.979H114.229C113.069 117.979 112.129 117.04 112.129 115.88V7.27734C112.129 6.11767 113.069 5.17773 114.229 5.17773H293.795C294.955 5.17773 295.895 6.11767 295.895 7.27734V115.88Z"
  />
  <path
    d="M262.314 14C262.591 14 262.814 14.2239 262.814 14.5V108.495C262.814 108.771 262.591 108.995 262.314 108.995H144.814C144.538 108.995 144.314 108.771 144.314 108.495V14.5C144.314 14.2239 144.538 14 144.814 14H262.314ZM145.314 107.995H261.814V15H145.314V107.995ZM182.502 107.008V26.4072H147.301C147.025 26.4072 146.801 26.1832 146.801 25.9072C146.801 25.6311 147.025 25.4072 147.301 25.4072H260.261C260.537 25.4072 260.761 25.6311 260.761 25.9072C260.761 26.1832 260.537 26.4072 260.261 26.4072H183.502V107.008C183.502 107.284 183.278 107.508 183.002 107.508C182.726 107.508 182.502 107.284 182.502 107.008Z"
  />
  <path
    d="M251.075 37.4209H194.435V98.4727H251.075V37.4209ZM165.943 95.8291C166.219 95.8292 166.443 96.053 166.443 96.3291C166.443 96.6052 166.219 96.829 165.943 96.8291H153.963C153.687 96.8291 153.463 96.6052 153.463 96.3291C153.463 96.053 153.687 95.8291 153.963 95.8291H165.943ZM173.486 86.4287C173.762 86.4287 173.986 86.6528 173.986 86.9287C173.986 87.2049 173.762 87.4287 173.486 87.4287H153.963C153.687 87.4287 153.463 87.2049 153.463 86.9287C153.463 86.6528 153.687 86.4287 153.963 86.4287H173.486ZM165.943 77.0293C166.219 77.0294 166.443 77.2532 166.443 77.5293C166.443 77.8053 166.219 78.0292 165.943 78.0293H153.963C153.687 78.0293 153.463 77.8053 153.463 77.5293C153.463 77.2532 153.687 77.0293 153.963 77.0293H165.943ZM172.977 35.2178C173.253 35.2178 173.477 35.4416 173.477 35.7178V61.7627C173.477 62.0388 173.253 62.2627 172.977 62.2627H154.177C153.901 62.2627 153.677 62.0388 153.677 61.7627V35.7178C153.677 35.4416 153.901 35.2178 154.177 35.2178H172.977ZM154.677 61.2627H172.477V36.2178H154.677V61.2627ZM252.075 98.9727C252.075 99.2488 251.851 99.4726 251.575 99.4727H193.935C193.658 99.4727 193.435 99.2488 193.435 98.9727V36.9209C193.435 36.6448 193.658 36.4209 193.935 36.4209H251.575C251.851 36.4209 252.075 36.6448 252.075 36.9209V98.9727Z"
  />
</svg>