<svg viewBox="0 0 300 141">
  <path
    d="M280.5 131.125V122.995C279.026 123.927 277.356 124.709 275.605 125.35C270.358 127.274 263.429 128.375 256 128.375C248.571 128.375 241.642 127.273 236.395 125.349V125.35C234.647 124.71 232.975 123.934 231.5 123V131.125C231.5 132.023 231.992 133.005 233.16 134.021C234.326 135.034 236.071 135.992 238.314 136.816C242.793 138.462 249.045 139.5 256 139.5V140.5L254.688 140.488C241.215 140.237 230.5 136.143 230.5 131.125V121.059C232.196 122.441 234.37 123.543 236.738 124.41C241.53 126.168 247.813 127.236 254.63 127.362L256 127.375C263.113 127.375 269.724 126.353 274.777 124.584L275.262 124.41C277.63 123.543 279.804 122.43 281.5 121.059V131.125L281.491 131.367C281.142 136.435 269.862 140.5 256 140.5V139.5C262.955 139.5 269.207 138.462 273.686 136.816C275.929 135.992 277.674 135.034 278.84 134.021C280.008 133.005 280.5 132.023 280.5 131.125ZM280.5 114.25V104.245C279.026 105.177 277.356 105.959 275.605 106.6L275.604 106.599C270.357 108.523 263.429 109.625 256 109.625C248.571 109.625 241.642 108.523 236.395 106.599V106.6C234.647 105.96 232.975 105.184 231.5 104.25V114.25C231.5 115.148 231.992 116.13 233.16 117.146C234.326 118.159 236.071 119.117 238.314 119.941C242.793 121.587 249.045 122.625 256 122.625V123.625L254.688 123.613C241.215 123.362 230.5 119.268 230.5 114.25V102.309C232.196 103.691 234.37 104.793 236.738 105.66C241.53 107.418 247.813 108.486 254.63 108.612L256 108.625C263.113 108.625 269.724 107.603 274.777 105.834L275.262 105.66C277.63 104.793 279.804 103.68 281.5 102.309V114.25L281.491 114.492C281.142 119.56 269.862 123.625 256 123.625V122.625C262.955 122.625 269.207 121.587 273.686 119.941C275.929 119.117 277.674 118.159 278.84 117.146C280.008 116.13 280.5 115.148 280.5 114.25ZM280.5 95.5V89.875C280.5 88.9767 280.008 87.9951 278.84 86.9795C277.674 85.9661 275.929 85.0081 273.686 84.1836C269.207 82.5376 262.955 81.5 256 81.5C249.045 81.5 242.793 82.5376 238.314 84.1836C236.071 85.0081 234.326 85.9661 233.16 86.9795C231.992 87.9951 231.5 88.9767 231.5 89.875V95.5C231.5 96.3983 231.992 97.3799 233.16 98.3955C234.326 99.4089 236.071 100.367 238.314 101.191C242.793 102.837 249.045 103.875 256 103.875V104.875L254.688 104.863C241.215 104.612 230.5 100.518 230.5 95.5V89.875C230.5 84.6953 241.918 80.5 256 80.5L257.312 80.5117C270.785 80.7628 281.5 84.8572 281.5 89.875V95.5L281.491 95.7422C281.142 100.81 269.862 104.875 256 104.875V103.875C262.955 103.875 269.207 102.837 273.686 101.191C275.929 100.367 277.674 99.4089 278.84 98.3955C280.008 97.3799 280.5 96.3983 280.5 95.5Z"
  />
  <path
    d="M210.216 2.09961C210.216 1.49222 209.724 1 209.116 1H20.0996C19.4922 1 19 1.49222 19 2.09961V121.08C19.0001 121.687 19.4923 122.179 20.0996 122.179H209.116C209.724 122.179 210.216 121.687 210.216 121.08V2.09961ZM211.216 121.08C211.216 122.24 210.276 123.179 209.116 123.179H20.0996C18.94 123.179 18.0001 122.24 18 121.08V2.09961C18 0.939936 18.9399 0 20.0996 0H209.116C210.276 0 211.216 0.939936 211.216 2.09961V121.08Z"
  />
  <path
    d="M125.739 122.237C126.015 122.237 126.239 122.461 126.239 122.737V135.15C126.239 135.427 126.015 135.65 125.739 135.65H103.479C103.202 135.65 102.979 135.427 102.979 135.15V122.737C102.979 122.461 103.202 122.237 103.479 122.237H125.739ZM103.979 134.65H125.239V123.237H103.979V134.65Z"
  />
  <path
    d="M141.369 134.649C141.502 134.649 141.631 134.703 141.724 134.798L147.01 140.148C147.151 140.292 147.193 140.507 147.115 140.693C147.037 140.879 146.855 141 146.653 141H82.5604C82.366 141 82.1893 140.887 82.1072 140.711C82.0253 140.535 82.0527 140.327 82.1776 140.179L86.6707 134.828C86.7656 134.715 86.906 134.65 87.0535 134.649H141.369ZM83.6326 140H145.457L141.16 135.649H87.2869L83.6326 140Z"
  />
  <path
    d="M205.609 7.27637C205.609 6.66898 205.117 6.17676 204.51 6.17676H24.9434C24.336 6.17676 23.8438 6.66898 23.8438 7.27637V115.879C23.8438 116.486 24.336 116.979 24.9434 116.979H204.51C205.117 116.979 205.609 116.486 205.609 115.879V7.27637ZM206.609 115.879C206.609 117.039 205.669 117.979 204.51 117.979H24.9434C23.7837 117.979 22.8438 117.039 22.8438 115.879V7.27637C22.8438 6.11669 23.7837 5.17676 24.9434 5.17676H204.51C205.669 5.17676 206.609 6.11669 206.609 7.27637V115.879Z"
  />
  <path
    d="M36.875 41C36.875 40.1049 36.5197 39.2462 35.8867 38.6133C35.2538 37.9803 34.3951 37.625 33.5 37.625C32.6049 37.625 31.7462 37.9803 31.1133 38.6133C30.4803 39.2462 30.125 40.1049 30.125 41C30.125 41.8951 30.4803 42.7538 31.1133 43.3867C31.7462 44.0197 32.6049 44.375 33.5 44.375V45.375C32.4122 45.375 31.366 44.9699 30.5635 44.2432L30.4062 44.0938C29.5858 43.2733 29.125 42.1603 29.125 41C29.125 39.8397 29.5858 38.7267 30.4062 37.9062C31.2267 37.0858 32.3397 36.625 33.5 36.625C34.6603 36.625 35.7733 37.0858 36.5938 37.9062C37.4142 38.7267 37.875 39.8397 37.875 41C37.875 42.1603 37.4142 43.2733 36.5938 44.0938L36.4365 44.2432C35.634 44.9699 34.5878 45.375 33.5 45.375V44.375C34.3951 44.375 35.2538 44.0197 35.8867 43.3867C36.5197 42.7538 36.875 41.8951 36.875 41ZM36.875 28.5C36.875 27.6049 36.5197 26.7462 35.8867 26.1133C35.2538 25.4803 34.3951 25.125 33.5 25.125C32.6049 25.125 31.7462 25.4803 31.1133 26.1133C30.4803 26.7462 30.125 27.6049 30.125 28.5C30.125 29.3951 30.4803 30.2538 31.1133 30.8867C31.7462 31.5197 32.6049 31.875 33.5 31.875V32.875C32.4122 32.875 31.366 32.4699 30.5635 31.7432L30.4062 31.5938C29.5858 30.7733 29.125 29.6603 29.125 28.5C29.125 27.3397 29.5858 26.2267 30.4062 25.4062C31.2267 24.5858 32.3397 24.125 33.5 24.125C34.6603 24.125 35.7733 24.5858 36.5938 25.4062C37.4142 26.2267 37.875 27.3397 37.875 28.5C37.875 29.6603 37.4142 30.7733 36.5938 31.5938L36.4365 31.7432C35.634 32.4699 34.5878 32.875 33.5 32.875V31.875C34.3951 31.875 35.2538 31.5197 35.8867 30.8867C36.5197 30.2538 36.875 29.3951 36.875 28.5ZM36.875 16C36.875 15.1049 36.5197 14.2462 35.8867 13.6133C35.2538 12.9803 34.3951 12.625 33.5 12.625C32.6049 12.625 31.7462 12.9803 31.1133 13.6133C30.4803 14.2462 30.125 15.1049 30.125 16C30.125 16.8951 30.4803 17.7538 31.1133 18.3867C31.7462 19.0197 32.6049 19.375 33.5 19.375V20.375C32.4122 20.375 31.366 19.9699 30.5635 19.2432L30.4062 19.0938C29.5858 18.2733 29.125 17.1603 29.125 16C29.125 14.8397 29.5858 13.7267 30.4062 12.9062C31.2267 12.0858 32.3397 11.625 33.5 11.625C34.6603 11.625 35.7733 12.0858 36.5938 12.9062C37.4142 13.7267 37.875 14.8397 37.875 16C37.875 17.1603 37.4142 18.2733 36.5938 19.0938L36.4365 19.2432C35.634 19.9699 34.5878 20.375 33.5 20.375V19.375C34.3951 19.375 35.2538 19.0197 35.8867 18.3867C36.5197 17.7538 36.875 16.8951 36.875 16Z"
  />
  <path
    d="M36.875 78C36.875 77.1049 36.5197 76.2462 35.8867 75.6133C35.2538 74.9803 34.3951 74.625 33.5 74.625C32.6049 74.625 31.7462 74.9803 31.1133 75.6133C30.4803 76.2462 30.125 77.1049 30.125 78C30.125 78.8951 30.4803 79.7538 31.1133 80.3867C31.7462 81.0197 32.6049 81.375 33.5 81.375V82.375C32.4122 82.375 31.366 81.9699 30.5635 81.2432L30.4062 81.0938C29.5858 80.2733 29.125 79.1603 29.125 78C29.125 76.8397 29.5858 75.7267 30.4062 74.9062C31.2267 74.0858 32.3397 73.625 33.5 73.625C34.6603 73.625 35.7733 74.0858 36.5938 74.9062C37.4142 75.7267 37.875 76.8397 37.875 78C37.875 79.1603 37.4142 80.2733 36.5938 81.0938L36.4365 81.2432C35.634 81.9699 34.5878 82.375 33.5 82.375V81.375C34.3951 81.375 35.2538 81.0197 35.8867 80.3867C36.5197 79.7538 36.875 78.8951 36.875 78ZM36.875 65.5C36.875 64.6049 36.5197 63.7462 35.8867 63.1133C35.2538 62.4803 34.3951 62.125 33.5 62.125C32.6049 62.125 31.7462 62.4803 31.1133 63.1133C30.4803 63.7462 30.125 64.6049 30.125 65.5C30.125 66.3951 30.4803 67.2538 31.1133 67.8867C31.7462 68.5197 32.6049 68.875 33.5 68.875V69.875C32.4122 69.875 31.366 69.4699 30.5635 68.7432L30.4062 68.5938C29.5858 67.7733 29.125 66.6603 29.125 65.5C29.125 64.3397 29.5858 63.2267 30.4062 62.4062C31.2267 61.5858 32.3397 61.125 33.5 61.125C34.6603 61.125 35.7733 61.5858 36.5938 62.4062C37.4142 63.2267 37.875 64.3397 37.875 65.5C37.875 66.6603 37.4142 67.7733 36.5938 68.5938L36.4365 68.7432C35.634 69.4699 34.5878 69.875 33.5 69.875V68.875C34.3951 68.875 35.2538 68.5197 35.8867 67.8867C36.5197 67.2538 36.875 66.3951 36.875 65.5ZM36.875 53C36.875 52.1049 36.5197 51.2462 35.8867 50.6133C35.2538 49.9803 34.3951 49.625 33.5 49.625C32.6049 49.625 31.7462 49.9803 31.1133 50.6133C30.4803 51.2462 30.125 52.1049 30.125 53C30.125 53.8951 30.4803 54.7538 31.1133 55.3867C31.7462 56.0197 32.6049 56.375 33.5 56.375V57.375C32.4122 57.375 31.366 56.9699 30.5635 56.2432L30.4062 56.0938C29.5858 55.2733 29.125 54.1603 29.125 53C29.125 51.8397 29.5858 50.7267 30.4062 49.9062C31.2267 49.0858 32.3397 48.625 33.5 48.625C34.6603 48.625 35.7733 49.0858 36.5938 49.9062C37.4142 50.7267 37.875 51.8397 37.875 53C37.875 54.1603 37.4142 55.2733 36.5938 56.0938L36.4365 56.2432C35.634 56.9699 34.5878 57.375 33.5 57.375V56.375C34.3951 56.375 35.2538 56.0197 35.8867 55.3867C36.5197 54.7538 36.875 53.8951 36.875 53Z"
  />
  <path
    d="M66.3887 39.4375C66.3887 32.5523 71.3796 26.8166 77.9648 25.6123L78.6073 25.5098C79.1504 25.4336 79.6113 25.8672 79.6113 26.4121V40.375L88.8485 49.5449C89.244 49.9375 89.2141 50.582 88.7596 50.8984C86.4459 52.5389 83.6129 53.4999 80.5556 53.5V52.5C83.346 52.4999 85.9305 51.6388 88.0565 50.168L78.9062 41.085L78.6113 40.791V26.5215C72.2588 27.4494 67.3887 32.8872 67.3887 39.4375C67.3887 46.6475 73.2795 52.5 80.5556 52.5V53.5L80.1894 53.4951C72.5372 53.3025 66.3887 47.0855 66.3887 39.4375ZM97.5623 40.3799C98.0617 40.4321 98.4363 40.8658 98.3699 41.3711L98.2713 41.9805C97.7139 45.0073 96.1825 47.6929 94.0076 49.709L93.9393 49.7666C93.5853 50.0332 93.0777 49.9919 92.7567 49.668L83.3886 40.375H97.4608L97.5623 40.3799ZM93.4041 48.9014C95.4852 46.9409 96.9145 44.3194 97.3563 41.375H85.8163L93.4041 48.9014ZM82.4442 37.5625V24.4727C82.4442 23.9453 82.8573 23.5 83.3886 23.5C90.6903 23.5 96.6111 29.377 96.6111 36.625L96.6053 36.7227C96.5539 37.2021 96.1286 37.5625 95.6307 37.5625H82.4442ZM83.4442 36.5625H95.6102C95.5764 29.9207 90.1539 24.5297 83.4442 24.5V36.5625Z"
  />
  <path
    d="M72.9375 94.125C72.9375 93.5448 72.7071 92.9884 72.2969 92.5781C71.8866 92.1679 71.3302 91.9375 70.75 91.9375C70.1698 91.9375 69.6134 92.1679 69.2031 92.5781C68.7929 92.9884 68.5625 93.5448 68.5625 94.125C68.5625 94.7052 68.7929 95.2616 69.2031 95.6719C69.6134 96.0821 70.1698 96.3125 70.75 96.3125V97.3125C69.9575 97.3125 69.1951 97.0177 68.6104 96.4883L68.4961 96.3789C67.8983 95.7811 67.5625 94.9704 67.5625 94.125C67.5625 93.2796 67.8983 92.4689 68.4961 91.8711C69.0939 91.2733 69.9046 90.9375 70.75 90.9375C71.5954 90.9375 72.4061 91.2733 73.0039 91.8711C73.6017 92.4689 73.9375 93.2796 73.9375 94.125C73.9375 94.9704 73.6017 95.7811 73.0039 96.3789L72.8896 96.4883C72.3049 97.0177 71.5425 97.3125 70.75 97.3125V96.3125C71.3302 96.3125 71.8866 96.0821 72.2969 95.6719C72.7071 95.2616 72.9375 94.7052 72.9375 94.125ZM98.375 95.25V96.25H79.25V95.25H98.375ZM99.5 94.125C99.5 93.5019 98.9981 93 98.375 93H79.25C78.6269 93 78.125 93.5019 78.125 94.125C78.125 94.7481 78.6269 95.25 79.25 95.25V96.25C78.0746 96.25 77.125 95.3004 77.125 94.125C77.125 92.9496 78.0746 92 79.25 92H98.375C99.5504 92 100.5 92.9496 100.5 94.125C100.5 95.3004 99.5504 96.25 98.375 96.25V95.25C98.9981 95.25 99.5 94.7481 99.5 94.125ZM72.9375 83.5C72.9375 83.2127 72.8804 82.9285 72.7705 82.6631C72.6606 82.3977 72.5 82.1563 72.2969 81.9531C72.0937 81.75 71.8523 81.5894 71.5869 81.4795C71.3215 81.3696 71.0373 81.3125 70.75 81.3125C70.4627 81.3125 70.1785 81.3696 69.9131 81.4795C69.6477 81.5894 69.4063 81.75 69.2031 81.9531C69 82.1563 68.8394 82.3977 68.7295 82.6631C68.6196 82.9285 68.5625 83.2127 68.5625 83.5C68.5625 83.7873 68.6196 84.0715 68.7295 84.3369C68.8394 84.6023 69 84.8437 69.2031 85.0469C69.4063 85.25 69.6477 85.4106 69.9131 85.5205C70.1785 85.6304 70.4627 85.6875 70.75 85.6875V86.6875C70.3838 86.6875 70.0208 86.624 69.6768 86.501L69.5303 86.4453C69.1919 86.3051 68.8802 86.1077 68.6094 85.8623L68.4961 85.7539C68.2001 85.4579 67.9649 85.1065 67.8047 84.7197C67.6446 84.3331 67.5625 83.9185 67.5625 83.5C67.5625 83.1338 67.626 82.7708 67.749 82.4268L67.8047 82.2803C67.9649 81.8935 68.2001 81.5421 68.4961 81.2461C68.755 80.9872 69.0565 80.7754 69.3867 80.6191L69.5303 80.5547C69.9169 80.3946 70.3315 80.3125 70.75 80.3125C71.1685 80.3125 71.5831 80.3946 71.9697 80.5547C72.3565 80.7149 72.7079 80.9501 73.0039 81.2461C73.2999 81.5421 73.5351 81.8935 73.6953 82.2803C73.8554 82.6669 73.9375 83.0815 73.9375 83.5C73.9375 83.9185 73.8554 84.3331 73.6953 84.7197L73.6309 84.8633C73.4746 85.1935 73.2628 85.495 73.0039 85.7539L72.8906 85.8623C72.6198 86.1077 72.3081 86.3051 71.9697 86.4453L71.8232 86.501C71.4792 86.624 71.1162 86.6875 70.75 86.6875V85.6875C71.0373 85.6875 71.3215 85.6304 71.5869 85.5205C71.8523 85.4106 72.0937 85.25 72.2969 85.0469C72.5 84.8437 72.6606 84.6023 72.7705 84.3369C72.8804 84.0715 72.9375 83.7873 72.9375 83.5ZM98.375 84.625V85.625H79.25V84.625H98.375ZM99.5 83.5C99.5 82.8769 98.9981 82.375 98.375 82.375H79.25C78.6269 82.375 78.125 82.8769 78.125 83.5C78.125 84.1231 78.6269 84.625 79.25 84.625V85.625C78.0746 85.625 77.125 84.6754 77.125 83.5C77.125 82.3246 78.0746 81.375 79.25 81.375H98.375C99.5504 81.375 100.5 82.3246 100.5 83.5C100.5 84.6754 99.5504 85.625 98.375 85.625V84.625C98.9981 84.625 99.5 84.1231 99.5 83.5ZM72.9375 72.875C72.9375 72.2948 72.7071 71.7384 72.2969 71.3281C71.8866 70.9179 71.3302 70.6875 70.75 70.6875C70.1698 70.6875 69.6134 70.9179 69.2031 71.3281C68.7929 71.7384 68.5625 72.2948 68.5625 72.875C68.5625 73.4552 68.7929 74.0116 69.2031 74.4219C69.6134 74.8321 70.1698 75.0625 70.75 75.0625V76.0625C69.9575 76.0625 69.1951 75.7677 68.6104 75.2383L68.4961 75.1289C67.8983 74.5311 67.5625 73.7204 67.5625 72.875C67.5625 72.0296 67.8983 71.2189 68.4961 70.6211C69.0939 70.0233 69.9046 69.6875 70.75 69.6875C71.5954 69.6875 72.4061 70.0233 73.0039 70.6211C73.6017 71.2189 73.9375 72.0296 73.9375 72.875C73.9375 73.7204 73.6017 74.5311 73.0039 75.1289L72.8896 75.2383C72.3049 75.7677 71.5425 76.0625 70.75 76.0625V75.0625C71.3302 75.0625 71.8866 74.8321 72.2969 74.4219C72.7071 74.0116 72.9375 73.4552 72.9375 72.875ZM98.375 74V75H79.25V74H98.375ZM99.5 72.875C99.5 72.2519 98.9981 71.75 98.375 71.75H79.25C78.6269 71.75 78.125 72.2519 78.125 72.875C78.125 73.4981 78.6269 74 79.25 74V75C78.0746 75 77.125 74.0504 77.125 72.875C77.125 71.6996 78.0746 70.75 79.25 70.75H98.375C99.5504 70.75 100.5 71.6996 100.5 72.875C100.5 74.0504 99.5504 75 98.375 75V74C98.9981 74 99.5 73.4981 99.5 72.875Z"
  />
  <path
    d="M137.938 49.125C137.938 48.5448 137.707 47.9884 137.297 47.5781C136.887 47.1679 136.33 46.9375 135.75 46.9375C135.17 46.9375 134.613 47.1679 134.203 47.5781C133.793 47.9884 133.562 48.5448 133.562 49.125C133.562 49.7052 133.793 50.2616 134.203 50.6719C134.613 51.0821 135.17 51.3125 135.75 51.3125V52.3125C134.957 52.3125 134.195 52.0177 133.61 51.4883L133.496 51.3789C132.898 50.7811 132.562 49.9704 132.562 49.125C132.562 48.2796 132.898 47.4689 133.496 46.8711C134.094 46.2733 134.905 45.9375 135.75 45.9375C136.595 45.9375 137.406 46.2733 138.004 46.8711C138.602 47.4689 138.938 48.2796 138.938 49.125C138.938 49.9704 138.602 50.7811 138.004 51.3789L137.89 51.4883C137.305 52.0177 136.543 52.3125 135.75 52.3125V51.3125C136.33 51.3125 136.887 51.0821 137.297 50.6719C137.707 50.2616 137.938 49.7052 137.938 49.125ZM163.375 50.25V51.25H144.25V50.25H163.375ZM164.5 49.125C164.5 48.5019 163.998 48 163.375 48H144.25C143.627 48 143.125 48.5019 143.125 49.125C143.125 49.7481 143.627 50.25 144.25 50.25V51.25C143.075 51.25 142.125 50.3004 142.125 49.125C142.125 47.9496 143.075 47 144.25 47H163.375C164.55 47 165.5 47.9496 165.5 49.125C165.5 50.3004 164.55 51.25 163.375 51.25V50.25C163.998 50.25 164.5 49.7481 164.5 49.125ZM137.938 38.5C137.938 38.2127 137.88 37.9285 137.771 37.6631C137.661 37.3977 137.5 37.1563 137.297 36.9531C137.094 36.75 136.852 36.5894 136.587 36.4795C136.322 36.3696 136.037 36.3125 135.75 36.3125C135.463 36.3125 135.178 36.3696 134.913 36.4795C134.648 36.5894 134.406 36.75 134.203 36.9531C134 37.1563 133.839 37.3977 133.729 37.6631C133.62 37.9285 133.562 38.2127 133.562 38.5C133.562 38.7873 133.62 39.0715 133.729 39.3369C133.839 39.6023 134 39.8437 134.203 40.0469C134.406 40.25 134.648 40.4106 134.913 40.5205C135.178 40.6304 135.463 40.6875 135.75 40.6875V41.6875C135.384 41.6875 135.021 41.624 134.677 41.501L134.53 41.4453C134.192 41.3051 133.88 41.1077 133.609 40.8623L133.496 40.7539C133.2 40.4579 132.965 40.1065 132.805 39.7197C132.645 39.3331 132.562 38.9185 132.562 38.5C132.562 38.1338 132.626 37.7708 132.749 37.4268L132.805 37.2803C132.965 36.8935 133.2 36.5421 133.496 36.2461C133.755 35.9872 134.056 35.7754 134.387 35.6191L134.53 35.5547C134.917 35.3946 135.331 35.3125 135.75 35.3125C136.169 35.3125 136.583 35.3946 136.97 35.5547C137.356 35.7149 137.708 35.9501 138.004 36.2461C138.3 36.5421 138.535 36.8935 138.695 37.2803C138.855 37.6669 138.938 38.0815 138.938 38.5C138.938 38.9185 138.855 39.3331 138.695 39.7197L138.631 39.8633C138.475 40.1935 138.263 40.495 138.004 40.7539L137.891 40.8623C137.62 41.1077 137.308 41.3051 136.97 41.4453L136.823 41.501C136.479 41.624 136.116 41.6875 135.75 41.6875V40.6875C136.037 40.6875 136.322 40.6304 136.587 40.5205C136.852 40.4106 137.094 40.25 137.297 40.0469C137.5 39.8437 137.661 39.6023 137.771 39.3369C137.88 39.0715 137.938 38.7873 137.938 38.5ZM163.375 39.625V40.625H144.25V39.625H163.375ZM164.5 38.5C164.5 37.8769 163.998 37.375 163.375 37.375H144.25C143.627 37.375 143.125 37.8769 143.125 38.5C143.125 39.1231 143.627 39.625 144.25 39.625V40.625C143.075 40.625 142.125 39.6754 142.125 38.5C142.125 37.3246 143.075 36.375 144.25 36.375H163.375C164.55 36.375 165.5 37.3246 165.5 38.5C165.5 39.6754 164.55 40.625 163.375 40.625V39.625C163.998 39.625 164.5 39.1231 164.5 38.5ZM137.938 27.875C137.938 27.2948 137.707 26.7384 137.297 26.3281C136.887 25.9179 136.33 25.6875 135.75 25.6875C135.17 25.6875 134.613 25.9179 134.203 26.3281C133.793 26.7384 133.562 27.2948 133.562 27.875C133.562 28.4552 133.793 29.0116 134.203 29.4219C134.613 29.8321 135.17 30.0625 135.75 30.0625V31.0625C134.957 31.0625 134.195 30.7677 133.61 30.2383L133.496 30.1289C132.898 29.5311 132.562 28.7204 132.562 27.875C132.562 27.0296 132.898 26.2189 133.496 25.6211C134.094 25.0233 134.905 24.6875 135.75 24.6875C136.595 24.6875 137.406 25.0233 138.004 25.6211C138.602 26.2189 138.938 27.0296 138.938 27.875C138.938 28.7204 138.602 29.5311 138.004 30.1289L137.89 30.2383C137.305 30.7677 136.543 31.0625 135.75 31.0625V30.0625C136.33 30.0625 136.887 29.8321 137.297 29.4219C137.707 29.0116 137.938 28.4552 137.938 27.875ZM163.375 29V30H144.25V29H163.375ZM164.5 27.875C164.5 27.2519 163.998 26.75 163.375 26.75H144.25C143.627 26.75 143.125 27.2519 143.125 27.875C143.125 28.4981 143.627 29 144.25 29V30C143.075 30 142.125 29.0504 142.125 27.875C142.125 26.6996 143.075 25.75 144.25 25.75H163.375C164.55 25.75 165.5 26.6996 165.5 27.875C165.5 29.0504 164.55 30 163.375 30V29C163.998 29 164.5 28.4981 164.5 27.875Z"
  />
  <path
    d="M136.63 98.8398V99.8398H132.552V98.8398H136.63ZM136.682 98.7891V89.5703C136.682 89.5419 136.658 89.5186 136.63 89.5186H132.552C132.523 89.5186 132.5 89.5418 132.5 89.5703V98.7891C132.5 98.8173 132.523 98.8398 132.552 98.8398V99.8398L132.444 99.835C131.949 99.7848 131.556 99.3912 131.506 98.8965L131.5 98.7891V89.5703C131.5 89.0258 131.914 88.5782 132.444 88.5244L132.552 88.5186H136.63C137.211 88.5186 137.682 88.9895 137.682 89.5703V98.7891L137.677 98.8965C137.623 99.4265 137.174 99.8398 136.63 99.8398V98.8398C136.658 98.8398 136.681 98.8173 136.682 98.7891Z"
  />
  <path
    d="M145.903 98.8398V99.8398H141.825V98.8398H145.903ZM145.955 98.7881V83.3877C145.955 83.3592 145.932 83.3359 145.903 83.3359H141.825C141.797 83.3359 141.773 83.3592 141.773 83.3877V98.7881C141.774 98.8164 141.797 98.8398 141.825 98.8398V99.8398L141.718 99.834C141.223 99.7838 140.83 99.3903 140.779 98.8955L140.773 98.7881V83.3877C140.773 82.8432 141.187 82.3956 141.718 82.3418L141.825 82.3359H145.903C146.484 82.3359 146.955 82.8069 146.955 83.3877V98.7881L146.95 98.8955C146.896 99.4257 146.448 99.8398 145.903 99.8398V98.8398C145.932 98.8398 145.955 98.8164 145.955 98.7881Z"
  />
  <path
    d="M155.175 98.8396V99.8396H151.097V98.8396H155.175ZM155.227 98.7879V75.9697C155.227 75.9413 155.203 75.918 155.175 75.918H151.097C151.068 75.918 151.045 75.9413 151.045 75.9697V98.7879C151.045 98.8163 151.068 98.8396 151.097 98.8396V99.8396L150.989 99.8338C150.494 99.7836 150.101 99.3902 150.051 98.8953L150.045 98.7879V75.9697C150.045 75.4252 150.459 74.9776 150.989 74.9238L151.097 74.918H155.175C155.756 74.918 156.227 75.3889 156.227 75.9697V98.7879L156.222 98.8953C156.168 99.4256 155.719 99.8396 155.175 99.8396V98.8396C155.203 98.8396 155.227 98.8163 155.227 98.7879Z"
  />
  <path
    d="M164.448 98.8399V99.8399H160.37V98.8399H164.448ZM164.5 98.7881V68.5518C164.5 68.5233 164.477 68.5 164.448 68.5H160.37C160.342 68.5 160.318 68.5233 160.318 68.5518V98.7881C160.318 98.8165 160.342 98.8399 160.37 98.8399V99.8399L160.263 99.834C159.732 99.7802 159.318 99.3326 159.318 98.7881V68.5518C159.318 68.0073 159.732 67.5596 160.263 67.5059L160.37 67.5H164.448C165.029 67.5 165.5 67.971 165.5 68.5518V98.7881C165.5 99.3688 165.029 99.8399 164.448 99.8399V98.8399C164.477 98.8399 164.5 98.8166 164.5 98.7881Z"
  />
</svg>