<svg viewBox="0 0 300 141">
  <path
    d="M192.216 2.09961C192.216 1.49222 191.724 1 191.116 1H2.09961C1.49222 1 1 1.49222 1 2.09961V121.08C1.00006 121.687 1.49226 122.179 2.09961 122.179H191.116C191.724 122.179 192.216 121.687 192.216 121.08V2.09961ZM193.216 121.08C193.216 122.24 192.276 123.179 191.116 123.179H2.09961C0.939972 123.179 5.76851e-05 122.24 0 121.08V2.09961C0 0.939936 0.939936 0 2.09961 0H191.116C192.276 0 193.216 0.939936 193.216 2.09961V121.08Z"
  />
  <path
    d="M107.739 122.237C108.015 122.237 108.239 122.461 108.239 122.737V135.15C108.239 135.427 108.015 135.65 107.739 135.65H85.4785C85.2024 135.65 84.9785 135.427 84.9785 135.15V122.737C84.9785 122.461 85.2024 122.237 85.4785 122.237H107.739ZM85.9785 134.65H107.239V123.237H85.9785V134.65Z"
  />
  <path
    d="M123.369 134.649C123.502 134.649 123.631 134.703 123.724 134.798L129.01 140.148C129.151 140.292 129.193 140.507 129.115 140.693C129.037 140.879 128.855 141 128.653 141H64.5604C64.366 141 64.1893 140.887 64.1072 140.711C64.0253 140.535 64.0527 140.327 64.1776 140.179L68.6707 134.828C68.7656 134.715 68.906 134.65 69.0535 134.649H123.369ZM65.6326 140H127.457L123.16 135.649H69.2869L65.6326 140Z"
  />
  <path
    d="M187.609 7.27637C187.609 6.66898 187.117 6.17676 186.51 6.17676H6.94336C6.33597 6.17676 5.84375 6.66898 5.84375 7.27637V115.879C5.84375 116.486 6.33597 116.979 6.94336 116.979H186.51C187.117 116.979 187.609 116.486 187.609 115.879V7.27637ZM188.609 115.879C188.609 117.039 187.669 117.979 186.51 117.979H6.94336C5.78369 117.979 4.84375 117.039 4.84375 115.879V7.27637C4.84375 6.11669 5.78369 5.17676 6.94336 5.17676H186.51C187.669 5.17676 188.609 6.11669 188.609 7.27637V115.879Z"
  />
  <path
    d="M143.115 106.5V107.5H50.8848V106.5H143.115ZM150.5 99.1367V23.8633C150.5 21.9113 149.722 20.0383 148.338 18.6572C146.953 17.2762 145.074 16.5 143.115 16.5H50.8848C48.9256 16.5 47.0468 17.2762 45.6621 18.6572C44.2776 20.0383 43.5001 21.9113 43.5 23.8633V99.1367C43.5001 101.089 44.2776 102.962 45.6621 104.343C47.0468 105.724 48.9256 106.5 50.8848 106.5V107.5L50.4688 107.489C48.5344 107.394 46.6924 106.633 45.2568 105.336L44.9561 105.051C43.4818 103.58 42.6135 101.618 42.5107 99.5508L42.5 99.1367V23.8633C42.5001 21.7839 43.2763 19.7841 44.6689 18.25L44.9561 17.9492C46.4301 16.479 48.3966 15.6133 50.4688 15.5107L50.8848 15.5H143.115C145.339 15.5 147.472 16.3809 149.044 17.9492C150.616 19.5176 151.5 21.6452 151.5 23.8633V99.1367L151.489 99.5508C151.387 101.618 150.518 103.58 149.044 105.051L148.743 105.336C147.205 106.725 145.2 107.5 143.115 107.5V106.5C145.074 106.5 146.953 105.724 148.338 104.343C149.722 102.962 150.5 101.089 150.5 99.1367ZM122.477 100.137H49.8848V84.085L78.1348 55.9053L122.477 100.137ZM123.532 69.8633L113.052 80.3184L131.917 99.1367H143.115V89.4033L123.532 69.8633ZM50.8848 23.8633V72.6709L72.2021 51.4062C73.7743 49.8391 75.9063 48.9581 78.1289 48.958C80.3517 48.958 82.4844 49.8389 84.0566 51.4062L107.114 74.4062L117.595 63.9512C118.276 63.2714 119.069 62.7149 119.938 62.3047L120.315 62.1377C121.333 61.7174 122.423 61.501 123.524 61.501L123.937 61.5117C124.897 61.5589 125.843 61.7698 126.733 62.1377C127.751 62.5581 128.675 63.1743 129.454 63.9512L143.115 77.5742V23.8633H50.8848ZM105.385 46.8633C105.385 45.7004 105.709 44.5618 106.318 43.5742L106.444 43.3789C107.092 42.4119 107.996 41.6444 109.053 41.1611L109.267 41.0684C110.416 40.5936 111.68 40.47 112.899 40.7119C114.119 40.9539 115.241 41.5505 116.12 42.4277C117 43.3049 117.598 44.4229 117.841 45.6396C118.083 46.8564 117.958 48.1175 117.482 49.2637C117.006 50.4098 116.201 51.3899 115.167 52.0791L114.971 52.2051C113.981 52.8133 112.839 53.1367 111.673 53.1367V52.1367C112.719 52.1367 113.743 51.8268 114.612 51.2471C115.482 50.6674 116.16 49.8439 116.56 48.8809C116.96 47.9177 117.064 46.8573 116.86 45.835C116.656 44.8128 116.152 43.8732 115.413 43.1357C114.674 42.3984 113.731 41.896 112.705 41.6924C111.679 41.4888 110.615 41.5929 109.648 41.9922C108.682 42.3916 107.856 43.0685 107.275 43.9355C106.695 44.8024 106.385 45.8212 106.385 46.8633C106.385 48.2608 106.941 49.6018 107.933 50.5908C108.924 51.5799 110.27 52.1367 111.673 52.1367V53.1367L111.361 53.1289C109.911 53.0571 108.529 52.4862 107.452 51.5137L107.227 51.2988C106.121 50.196 105.47 48.7251 105.393 47.1748L105.385 46.8633ZM144.115 100.137H131.503L131.211 99.8447L111.636 80.3184L123.532 68.4512L144.115 88.9883V100.137ZM50.8848 99.1367H120.058L78.1348 57.3184L50.8848 84.5V99.1367ZM144.115 79.9834L128.748 64.6602L128.747 64.6592C128.062 63.9753 127.248 63.4328 126.352 63.0625C125.455 62.6922 124.495 62.501 123.524 62.501C122.554 62.501 121.593 62.6922 120.697 63.0625C119.801 63.4329 118.986 63.9751 118.301 64.6592L107.114 75.8184L83.3496 52.1143C81.9651 50.7346 80.087 49.958 78.1289 49.958C76.1708 49.9581 74.2926 50.7335 72.9082 52.1133L49.8848 75.0811V22.8633H144.115V79.9834Z"
  />
  <path
    d="M238.093 110.6C238.093 106.462 236.455 102.494 233.539 99.5684C230.623 96.6431 226.669 95.0001 222.547 95C218.424 95 214.469 96.643 211.554 99.5684C208.638 102.494 207 106.462 207 110.6V124.4C207 126.449 207.402 128.478 208.184 130.37C208.965 132.263 210.11 133.983 211.554 135.432C212.997 136.88 214.712 138.029 216.598 138.812C218.484 139.596 220.506 140 222.547 140C224.588 140 226.609 139.596 228.495 138.812C230.381 138.029 232.095 136.88 233.539 135.432C234.983 133.983 236.128 132.263 236.909 130.37C237.691 128.477 238.093 126.449 238.093 124.4V110.6ZM239.093 124.4C239.093 126.58 238.665 128.738 237.834 130.752C237.003 132.766 235.783 134.596 234.247 136.138C232.711 137.679 230.886 138.902 228.879 139.736C226.871 140.571 224.72 141 222.547 141C220.374 141 218.221 140.571 216.214 139.736C214.206 138.902 212.382 137.679 210.846 136.138C209.309 134.596 208.091 132.766 207.26 130.752C206.428 128.738 206 126.58 206 124.4V110.6C206 106.198 207.743 101.975 210.846 98.8623C213.949 95.7491 218.158 94 222.547 94C226.936 94.0001 231.144 95.7493 234.247 98.8623C237.35 101.975 239.093 106.198 239.093 110.6V124.4Z"
  />
  <path
    d="M222.047 108.301V101.4C222.047 101.124 222.271 100.9 222.547 100.9C222.823 100.9 223.047 101.124 223.047 101.4V108.301C223.047 108.577 222.823 108.801 222.547 108.801C222.271 108.801 222.047 108.577 222.047 108.301Z"
  />
  <path
    d="M239.709 19.6846L230.157 36.8945L201.448 46.5L218.955 28.9121C219.794 29.1827 220.849 28.9926 221.553 28.2891C222.608 27.2338 222.608 25.5296 221.553 24.4473C220.497 23.392 218.766 23.392 217.711 24.4473L217.585 24.583C216.985 25.2817 216.834 26.2585 217.088 27.0449L199.5 44.5518L209.105 15.8428L226.343 6.29102L239.709 19.6846ZM209.931 16.5273L201.788 40.8623L215.999 26.7178C215.872 25.6895 216.188 24.5563 217.004 23.7402C218.405 22.3397 220.668 22.2953 222.122 23.6084L222.26 23.7402L222.269 23.749C223.698 25.2147 223.71 27.5454 222.26 28.9961C221.443 29.8124 220.31 30.1269 219.281 30L205.137 44.2109L229.472 36.0684L238.469 19.8564L226.167 7.53027L209.931 16.5273ZM245.5 13.9482L241.631 17.7637L228.236 4.36914L232.079 0.5L245.5 13.9482ZM229.647 4.36621L241.636 16.3545L244.081 13.9424L232.08 1.91699L229.647 4.36621Z"
  />
  <path
    d="M300 56.7002C300 59.0719 299.208 61.1238 297.625 62.8555L297.298 63.1973C295.496 64.9989 293.33 65.9004 290.8 65.9004L290.312 65.8896C289.823 65.8681 289.334 65.8138 288.845 65.7275C288.275 65.6269 287.734 65.4524 287.223 65.2051L287.005 65.0947L281.6 70.5L287.005 75.9053C287.58 75.5986 288.193 75.3875 288.845 75.2725L289.334 75.1973C289.823 75.1326 290.311 75.0996 290.8 75.0996V76.0996C290.207 76.0996 289.614 76.1518 289.019 76.2568C288.469 76.3538 287.956 76.5308 287.476 76.7871L286.822 77.1357L280.186 70.5L286.822 63.8643L287.476 64.2129C287.956 64.4692 288.469 64.6462 289.019 64.7432C289.614 64.8482 290.207 64.9004 290.8 64.9004C293.062 64.9004 294.975 64.1059 296.591 62.4902C298.206 60.8747 299 58.9627 299 56.7002C299 54.4375 298.206 52.5248 296.591 50.9092C294.975 49.2936 293.062 48.5 290.8 48.5V47.5L291.271 47.5107C293.444 47.6093 295.339 48.3973 296.955 49.875L297.298 50.2021C299.1 52.0038 300 54.1702 300 56.7002ZM282.6 56.7002C282.6 57.2926 282.652 57.8863 282.757 58.4814C282.854 59.0309 283.031 59.5439 283.287 60.0244L283.636 60.6777L277 67.3145L260.486 50.7998H255V51.6855L283.636 80.3223L283.287 80.9756C283.031 81.4561 282.854 81.9691 282.757 82.5186C282.652 83.1137 282.6 83.7074 282.6 84.2998C282.6 86.5625 283.394 88.4752 285.01 90.0908C286.625 91.7062 288.537 92.5 290.8 92.5C293.062 92.5 294.975 91.7064 296.591 90.0908C298.206 88.4752 299 86.5625 299 84.2998C299 82.0374 298.206 80.1253 296.591 78.5098C294.975 76.8941 293.062 76.0996 290.8 76.0996V75.0996L291.271 75.1104C293.6 75.216 295.609 76.1138 297.298 77.8027C298.987 79.4918 299.884 81.5009 299.989 83.8301L300 84.2998C300 86.8298 299.1 88.9962 297.298 90.7979C295.496 92.5995 293.33 93.5 290.8 93.5L290.33 93.4893C288.001 93.3837 285.992 92.4868 284.303 90.7979C282.501 88.9962 281.6 86.8298 281.6 84.2998L281.61 83.8115C281.632 83.3227 281.686 82.8336 281.772 82.3447L281.82 82.1025C281.942 81.5407 282.137 81.008 282.405 80.5049L254 52.0996V49.7998H260.9L277 65.9004L282.405 60.4951C282.099 59.9202 281.887 59.3068 281.772 58.6553C281.657 58.0037 281.6 57.3518 281.6 56.7002L281.61 56.2295C281.716 53.9005 282.614 51.8911 284.303 50.2021L284.645 49.875C286.376 48.2916 288.428 47.5 290.8 47.5V48.5C288.537 48.5 286.625 49.2938 285.01 50.9092C283.394 52.5248 282.6 54.4375 282.6 56.7002ZM290.801 62.2998C289.269 62.3016 287.933 61.7444 286.846 60.6572C285.759 59.57 285.2 58.2333 285.2 56.7012L285.206 56.416C285.27 55.0031 285.823 53.7646 286.843 52.7451C287.93 51.6577 289.267 51.1006 290.8 51.1006C292.331 51.099 293.668 51.6559 294.755 52.7432C295.842 53.8306 296.4 55.1677 296.4 56.7002C296.402 58.2314 295.844 59.5672 294.757 60.6543C293.67 61.7416 292.333 62.2996 290.801 62.2998ZM290.8 61.2998C292.065 61.2998 293.148 60.8489 294.05 59.9473L294.214 59.7764C295.006 58.91 295.402 57.8845 295.4 56.7002C295.4 55.4353 294.949 54.3518 294.048 53.4502C293.146 52.5486 292.063 52.0981 290.8 52.0996C289.614 52.0997 288.588 52.4967 287.722 53.2891L287.55 53.4521C286.648 54.3537 286.199 55.4367 286.2 56.7002C286.2 57.9651 286.651 59.0486 287.553 59.9502C288.398 60.7953 289.402 61.2435 290.565 61.2949L290.8 61.2998ZM275.85 70.5C275.85 70.7683 275.938 71.0072 276.114 71.2168L276.195 71.3047C276.397 71.5059 276.627 71.6194 276.887 71.6445L277 71.6504C277.307 71.6504 277.575 71.5347 277.805 71.3047L277.886 71.2168C278.062 71.0072 278.15 70.7683 278.15 70.5L278.145 70.3867C278.119 70.1268 278.006 69.8965 277.805 69.6953C277.603 69.4941 277.373 69.3806 277.113 69.3555L277 69.3496C276.693 69.3496 276.425 69.4653 276.195 69.6953C275.994 69.8965 275.881 70.1268 275.855 70.3867L275.85 70.5ZM254 91.2002V88.9004L270.1 72.7998L274.7 77.4004L260.9 91.2002H254ZM273.286 77.4004L270.101 74.2148L255 89.3145V90.2002H260.486L273.286 77.4004ZM290.8 89.9004C289.269 89.9019 287.933 89.3439 286.846 88.2568C285.758 87.1696 285.2 85.833 285.2 84.3008L285.206 84.0166C285.27 82.6036 285.823 81.3652 286.843 80.3457C287.93 79.2583 289.267 78.7012 290.8 78.7012C292.331 78.6996 293.668 79.2555 294.755 80.3428C295.774 81.3622 296.328 82.6011 296.394 84.0146L296.4 84.2998C296.402 85.8312 295.844 87.1676 294.757 88.2549C293.67 89.342 292.332 89.9002 290.8 89.9004ZM290.8 88.9004C292.065 88.9004 293.148 88.4493 294.05 87.5479L294.214 87.376C295.006 86.5096 295.402 85.4841 295.4 84.2998L295.395 84.0654C295.342 82.9006 294.893 81.8952 294.048 81.0498C293.146 80.1482 292.063 79.6987 290.8 79.7002C289.614 79.7002 288.588 80.0964 287.722 80.8887L287.55 81.0527C286.648 81.9542 286.199 83.0366 286.2 84.2998C286.2 85.4858 286.596 86.5123 287.389 87.3789L287.553 87.5498C288.398 88.395 289.402 88.8431 290.565 88.8945L290.8 88.9004ZM274.85 70.5C274.85 69.9108 275.083 69.3932 275.488 68.9883C275.893 68.5834 276.411 68.3496 277 68.3496C277.589 68.3496 278.107 68.5834 278.512 68.9883C278.917 69.3932 279.15 69.9108 279.15 70.5C279.15 71.0892 278.917 71.6068 278.512 72.0117C278.107 72.4166 277.589 72.6504 277 72.6504C276.411 72.6504 275.893 72.4166 275.488 72.0117C275.083 71.6068 274.85 71.0892 274.85 70.5Z"
  />
</svg>