<svg viewBox="0 0 300 141">
  <path
    d="M258.926 80V120.721H192.637V80H258.926ZM193.637 119.721H257.926V81H193.637V119.721ZM252.412 86.5156H199.152V114.205H252.412V86.5156ZM253.412 115.205H198.152V85.5156H253.412V115.205Z"
  />
  <path
    d="M257.843 125.609L267.564 134.744V140H184V134.744L193.724 125.609H257.843ZM185 135.176V139H266.564V135.176L257.446 126.609H194.119L185 135.176ZM233.035 130.348L233.329 130.816L235.884 134.897H215.685L218.528 130.348H233.035ZM219.083 131.348L217.488 133.897H234.077L232.481 131.348H219.083Z"
  />
  <path
    d="M258.926 0V40.7207H192.637V0H258.926ZM193.637 39.7207H257.926V1H193.637V39.7207ZM252.412 6.51562H199.152V34.2051H252.412V6.51562ZM253.412 35.2051H198.152V5.51562H253.412V35.2051Z"
  />
  <path
    d="M257.843 45.6094L267.564 54.744V59.9998H184V54.744L193.724 45.6094H257.843ZM185 55.1756V58.9998H266.564V55.1756L257.446 46.6094H194.119L185 55.1756ZM233.035 50.3476L233.329 50.8163L235.884 54.8973H215.685L218.528 50.3476H233.035ZM219.083 51.3476L217.488 53.8973H234.077L232.481 51.3476H219.083Z"
  />
  <path
    d="M118.246 25C126.29 25.0002 132.818 31.3634 132.818 39.209C132.818 47.06 126.29 53.4187 118.246 53.4189C126.29 53.4191 132.818 59.7828 132.818 67.6338C132.818 75.4793 126.29 81.8426 118.246 81.8428H87.8779V96.7402C89.0718 97.2055 90.1617 97.9084 91.083 98.8076C92.0043 99.7069 92.7385 100.785 93.2422 101.977H132.818C133.766 101.958 134.682 102.32 135.365 102.985C136.049 103.65 136.443 104.563 136.464 105.523C136.464 107.493 134.834 109.081 132.818 109.081H93.2422C91.8058 112.548 88.3063 115 84.2324 115C82.3234 115.019 80.4508 114.467 78.8486 113.415C77.2464 112.363 75.9845 110.855 75.2217 109.081H35.6455C33.6296 109.081 32.0002 107.487 32 105.523C32 103.565 33.6295 101.977 35.6455 101.977H75.2217C76.2088 99.5996 78.1521 97.7038 80.5859 96.7402V81.8428H50.2188C42.1752 81.8428 35.6458 75.4794 35.6455 67.6338C35.6455 59.7827 42.175 53.4189 50.2188 53.4189C42.175 53.4189 35.6455 47.0601 35.6455 39.209C35.6457 31.3633 42.1751 25 50.2188 25H118.246ZM50.2188 26C42.7033 26 36.6457 31.9394 36.6455 39.209C36.6455 46.3701 42.5149 52.2325 49.8672 52.4141L50.2188 52.4189V54.4189C42.7034 54.4189 36.6455 60.3585 36.6455 67.6338C36.6458 74.9033 42.7034 80.8428 50.2188 80.8428H81.5859V97.4199L80.9541 97.6699C78.7664 98.536 77.0269 100.237 76.1455 102.359L75.8896 102.977H35.6455C34.1562 102.977 33 104.142 33 105.523C33.0002 106.913 34.1593 108.081 35.6455 108.081H75.8809L76.1406 108.686C76.8267 110.281 77.9602 111.635 79.3975 112.579C80.8345 113.523 82.5129 114.017 84.2227 114L84.2324 113.999V114C87.9009 114 91.0364 111.793 92.3184 108.698L92.5742 108.081H132.818C134.304 108.081 135.461 106.919 135.463 105.527C135.444 104.834 135.158 104.179 134.668 103.702C134.175 103.222 133.516 102.962 132.838 102.976L132.828 102.977H92.5791L92.3213 102.365C91.8691 101.296 91.2104 100.329 90.3848 99.5234C89.5591 98.7175 88.5827 98.0882 87.5146 97.6719L86.8779 97.4238V80.8428H118.246C125.761 80.8426 131.818 74.9032 131.818 67.6338C131.818 60.3586 125.761 54.4192 118.246 54.4189V52.4189L118.597 52.4141C125.949 52.2327 131.818 46.3702 131.818 39.209C131.818 31.9395 125.761 26.0002 118.246 26H50.2188ZM55.0811 61.8955C58.2883 61.8955 60.9395 64.4367 60.9395 67.6338C60.9392 70.8261 58.2874 73.3662 55.0811 73.3662C51.8689 73.366 49.2239 70.8253 49.2236 67.6338C49.2236 64.4375 51.868 61.8957 55.0811 61.8955ZM55.0811 62.8955C52.3965 62.8957 50.2236 65.0133 50.2236 67.6338C50.2239 70.2487 52.3966 72.366 55.0811 72.3662C57.7604 72.3662 59.9392 70.2488 59.9395 67.6338C59.9395 65.0132 57.7606 62.8955 55.0811 62.8955ZM118.246 63.0811C120.785 63.0813 122.887 65.0927 122.887 67.6279V67.6377L122.886 67.6465C122.863 68.8681 122.363 70.0336 121.491 70.8857C120.623 71.734 119.457 72.2014 118.246 72.1846V72.1855H89.0898V72.1846C87.8799 72.2016 86.7147 71.7347 85.8467 70.8877C84.9749 70.037 84.4736 68.8737 84.4492 67.6533V67.6338C84.4492 65.0941 86.5503 63.0811 89.0898 63.0811H118.246ZM89.0898 64.0811C87.0789 64.0811 85.4492 65.6697 85.4492 67.6338C85.4686 68.5935 85.8627 69.5061 86.5449 70.1719C87.2274 70.8378 88.1427 71.2026 89.0898 71.1855H118.246C119.194 71.2024 120.11 70.8376 120.792 70.1709C121.475 69.5038 121.869 68.5888 121.887 67.6279C121.887 65.6693 120.257 64.0813 118.246 64.0811H89.0898ZM55.0811 33.4707C58.2889 33.4707 60.9393 36.0181 60.9395 39.209C60.9395 42.4061 58.2883 44.9473 55.0811 44.9473C51.8673 44.9471 49.2236 42.3993 49.2236 39.209C49.2238 36.0189 51.8674 33.4709 55.0811 33.4707ZM55.0811 34.4707C52.3966 34.4709 50.2238 36.594 50.2236 39.209C50.2236 41.8242 52.3965 43.9471 55.0811 43.9473C57.7606 43.9473 59.9395 41.8296 59.9395 39.209C59.9393 36.5939 57.7604 34.4707 55.0811 34.4707ZM118.246 34.6621C120.784 34.6623 122.887 36.6739 122.887 39.209C122.887 41.7423 120.786 43.7615 118.246 43.7617H89.0898V43.7607C87.8811 43.7777 86.7165 43.3123 85.8486 42.4668C84.9758 41.6164 84.4753 40.4481 84.4492 39.2305V39.209C84.4494 36.6738 86.5514 34.6621 89.0898 34.6621H118.246ZM89.0898 35.6621C87.079 35.6621 85.4494 37.2503 85.4492 39.209C85.4698 40.168 85.8646 41.0852 86.5469 41.75C87.2292 42.4148 88.1435 42.7788 89.0898 42.7617H118.246C120.257 42.7615 121.887 41.1677 121.887 39.209C121.887 37.2505 120.257 35.6623 118.246 35.6621H89.0898Z"
  />
  <path
    d="M216.003 107.749C216.003 107.017 216.25 106.306 216.705 105.731C217.16 105.157 217.795 104.753 218.508 104.585L218.503 104.499V96.4993C218.503 96.4706 218.505 96.4419 218.508 96.4133C217.731 96.2317 217.049 95.7706 216.59 95.1179C216.132 94.4652 215.929 93.6665 216.022 92.8743C216.091 92.2836 216.32 91.7231 216.686 91.2539C217.051 90.7847 217.538 90.4247 218.094 90.2131C218.65 90.0016 219.253 89.9465 219.838 90.054C220.423 90.1616 220.967 90.4275 221.411 90.8229C221.855 91.2182 222.182 91.7279 222.357 92.2964C222.532 92.8649 222.547 93.4703 222.401 94.0469C222.255 94.6234 221.954 95.1489 221.531 95.5662C221.107 95.9834 220.577 96.2764 219.998 96.4133L220.003 96.4993V100.009C220.526 99.6758 221.133 99.4989 221.753 99.4993H228.753C229.35 99.4993 229.922 99.2622 230.344 98.8403C230.766 98.4183 231.003 97.846 231.003 97.2493V96.4123C230.228 96.2285 229.547 95.7664 229.091 95.1138C228.634 94.4612 228.432 93.6636 228.525 92.8724C228.618 92.0813 228.997 91.3516 229.593 90.8221C230.188 90.2925 230.956 90 231.753 90C232.55 90 233.318 90.2925 233.913 90.8221C234.509 91.3516 234.888 92.0813 234.981 92.8724C235.074 93.6636 234.872 94.4612 234.415 95.1138C233.959 95.7664 233.278 96.2285 232.503 96.4123V97.2493C232.503 98.2438 232.108 99.1977 231.405 99.9009C230.701 100.604 229.748 100.999 228.753 100.999H221.753C221.289 100.999 220.844 101.184 220.516 101.512C220.187 101.84 220.003 102.285 220.003 102.749V104.499L219.998 104.585C220.593 104.725 221.136 105.03 221.565 105.464C221.994 105.899 222.292 106.446 222.425 107.042C222.558 107.638 222.52 108.259 222.316 108.835C222.112 109.411 221.75 109.917 221.271 110.296C220.792 110.676 220.216 110.912 219.609 110.979C219.002 111.046 218.388 110.941 217.838 110.675C217.288 110.409 216.824 109.993 216.5 109.476C216.175 108.958 216.003 108.36 216.003 107.749ZM219.253 94.9993C219.717 94.9993 220.162 94.8153 220.49 94.4863C220.653 94.3241 220.782 94.1313 220.87 93.919C220.958 93.7067 221.004 93.4791 221.004 93.2493C221.004 93.0194 220.958 92.7918 220.87 92.5795C220.782 92.3673 220.653 92.1745 220.49 92.0123C220.328 91.8494 220.135 91.7202 219.923 91.632C219.71 91.5439 219.483 91.4985 219.253 91.4985C219.023 91.4985 218.796 91.5439 218.583 91.632C218.371 91.7202 218.178 91.8494 218.016 92.0123C217.853 92.1744 217.724 92.3671 217.636 92.5794C217.548 92.7918 217.503 93.0194 217.503 93.2493C217.503 93.5954 217.605 93.9338 217.798 94.2216C217.99 94.5094 218.263 94.7338 218.583 94.8663C218.796 94.9543 219.023 94.9993 219.253 94.9993ZM219.253 109.499C219.717 109.499 220.162 109.315 220.49 108.986C220.653 108.824 220.782 108.631 220.87 108.419C220.958 108.207 221.004 107.979 221.004 107.749C221.004 107.519 220.958 107.292 220.87 107.08C220.782 106.867 220.653 106.674 220.49 106.512C220.328 106.349 220.135 106.22 219.923 106.132C219.71 106.044 219.483 105.998 219.253 105.998C219.023 105.998 218.796 106.044 218.583 106.132C218.371 106.22 218.178 106.349 218.016 106.512C217.853 106.674 217.724 106.867 217.636 107.08C217.548 107.292 217.502 107.519 217.502 107.749C217.502 107.979 217.548 108.207 217.636 108.419C217.724 108.631 217.853 108.824 218.016 108.986C218.344 109.315 218.789 109.499 219.253 109.499ZM230.003 93.2493C230.003 93.5954 230.105 93.9338 230.298 94.2216C230.49 94.5094 230.763 94.7338 231.083 94.8663C231.349 94.976 231.638 95.0185 231.924 94.9901C232.21 94.9616 232.485 94.8632 232.724 94.7034C232.964 94.5435 233.16 94.3273 233.295 94.0737C233.431 93.8201 233.503 93.5369 233.503 93.2493C233.503 92.7853 233.319 92.3403 232.99 92.0123C232.828 91.8494 232.635 91.7202 232.423 91.632C232.21 91.5439 231.983 91.4985 231.753 91.4985C231.523 91.4985 231.296 91.5439 231.083 91.632C230.871 91.7202 230.678 91.8494 230.516 92.0123C230.188 92.3403 230.003 92.7852 230.003 93.2493Z"
  />
  <path
    d="M230.5 27.75C230.5 26.888 230.842 26.0614 231.452 25.4519C232.061 24.8424 232.888 24.5 233.75 24.5C234.612 24.5 235.439 24.8424 236.048 25.4519C236.658 26.0614 237 26.888 237 27.75C237 28.612 236.658 29.4386 236.048 30.0481C235.439 30.6576 234.612 31 233.75 31C232.888 31 232.061 30.6576 231.452 30.0481C230.842 29.4386 230.5 28.612 230.5 27.75ZM216 27.75C216 26.888 216.342 26.0614 216.952 25.4519C217.561 24.8424 218.388 24.5 219.25 24.5C220.112 24.5 220.939 24.8424 221.548 25.4519C222.158 26.0614 222.5 26.888 222.5 27.75C222.5 28.612 222.158 29.4386 221.548 30.0481C220.939 30.6576 220.112 31 219.25 31C218.388 31 217.561 30.6576 216.952 30.0481C216.342 29.4386 216 28.612 216 27.75ZM216 13.25C216 12.388 216.342 11.5614 216.952 10.9519C217.561 10.3424 218.388 10 219.25 10C220.112 10 220.939 10.3424 221.548 10.9519C222.158 11.5614 222.5 12.388 222.5 13.25C222.5 14.112 222.158 14.9386 221.548 15.5481C220.939 16.1576 220.112 16.5 219.25 16.5C218.388 16.5 217.561 16.1576 216.952 15.5481C216.342 14.9386 216 14.112 216 13.25ZM219.25 11.5C219.02 11.5001 218.793 11.5454 218.58 11.6334C218.368 11.7215 218.175 11.8505 218.012 12.0131C217.85 12.1757 217.721 12.3687 217.633 12.5811C217.545 12.7935 217.5 13.0211 217.5 13.251C217.5 13.4809 217.545 13.7085 217.633 13.9208C217.721 14.1332 217.85 14.3261 218.013 14.4886C218.176 14.6511 218.369 14.78 218.581 14.8679C218.793 14.9559 219.021 15.0011 219.251 15.001C219.715 15.0009 220.16 14.8163 220.489 14.4879C220.817 14.1596 221.001 13.7143 221.001 13.25C221.001 12.7857 220.816 12.3405 220.488 12.0124C220.16 11.6842 219.714 11.4999 219.25 11.5ZM219.25 26C218.786 26.0001 218.341 26.1847 218.012 26.5131C217.684 26.8414 217.5 27.2867 217.5 27.751C217.5 28.2153 217.685 28.6605 218.013 28.9886C218.341 29.3168 218.787 29.5011 219.251 29.501C219.481 29.5009 219.708 29.4556 219.921 29.3676C220.133 29.2795 220.326 29.1505 220.489 28.9879C220.651 28.8253 220.78 28.6323 220.868 28.4199C220.956 28.2075 221.001 27.9799 221.001 27.75C221.001 27.5201 220.956 27.2925 220.868 27.0802C220.78 26.8678 220.651 26.6749 220.488 26.5124C220.325 26.3499 220.132 26.221 219.92 26.1331C219.708 26.0451 219.48 25.9999 219.25 26ZM233.75 26C233.52 26.0001 233.293 26.0454 233.08 26.1334C232.868 26.2215 232.675 26.3505 232.512 26.5131C232.35 26.6757 232.221 26.8687 232.133 27.0811C232.045 27.2935 232 27.5211 232 27.751C232 27.9809 232.045 28.2085 232.133 28.4208C232.221 28.6332 232.35 28.8261 232.513 28.9886C232.676 29.1511 232.869 29.28 233.081 29.3679C233.293 29.4559 233.521 29.5011 233.751 29.501C234.215 29.5009 234.66 29.3163 234.989 28.9879C235.317 28.6596 235.501 28.2143 235.501 27.75C235.501 27.2857 235.316 26.8405 234.988 26.5124C234.66 26.1842 234.214 25.9999 233.75 26Z"
  />
  <path
    d="M227.905 10.2203C228.045 10.3609 228.124 10.5516 228.124 10.7503C228.124 10.9491 228.045 11.1397 227.905 11.2803L226.685 12.5003H230.75C231.745 12.5003 232.698 12.8954 233.402 13.5987C234.105 14.3019 234.5 15.2558 234.5 16.2503V25.0003C234.5 25.1992 234.421 25.39 234.28 25.5306C234.14 25.6713 233.949 25.7503 233.75 25.7503C233.551 25.7503 233.36 25.6713 233.22 25.5306C233.079 25.39 233 25.1992 233 25.0003V16.2503C233 15.6536 232.763 15.0813 232.341 14.6593C231.919 14.2374 231.347 14.0003 230.75 14.0003H226.686L227.906 15.2203C228.043 15.3618 228.118 15.5513 228.116 15.748C228.114 15.9446 228.035 16.1327 227.896 16.2717C227.757 16.4107 227.569 16.4895 227.372 16.4911C227.176 16.4927 226.986 16.417 226.845 16.2803L224.345 13.7803C224.205 13.6397 224.126 13.4491 224.126 13.2503C224.126 13.0516 224.205 12.8609 224.345 12.7203L226.845 10.2203C226.986 10.0799 227.176 10.001 227.375 10.001C227.574 10.001 227.764 10.0799 227.905 10.2203ZM219.25 15.7503C219.449 15.7503 219.64 15.8293 219.78 15.97C219.921 16.1106 220 16.3014 220 16.5003V24.5003C220 24.6992 219.921 24.89 219.78 25.0306C219.64 25.1713 219.449 25.2503 219.25 25.2503C219.051 25.2503 218.86 25.1713 218.72 25.0306C218.579 24.89 218.5 24.6992 218.5 24.5003V16.5003C218.5 16.3014 218.579 16.1106 218.72 15.97C218.86 15.8293 219.051 15.7503 219.25 15.7503Z"
  />
</svg>