<svg viewBox="0 0 300 141">
  <path
    d="M245.216 2.09961C245.216 1.49222 244.724 1 244.116 1H55.0996C54.4922 1 54 1.49222 54 2.09961V121.08C54.0001 121.687 54.4923 122.179 55.0996 122.179H244.116C244.724 122.179 245.216 121.687 245.216 121.08V2.09961ZM246.216 121.08C246.216 122.24 245.276 123.179 244.116 123.179H55.0996C53.94 123.179 53.0001 122.24 53 121.08V2.09961C53 0.939936 53.9399 0 55.0996 0H244.116C245.276 0 246.216 0.939936 246.216 2.09961V121.08Z"
  />
  <path
    d="M160.739 122.237C161.015 122.237 161.239 122.461 161.239 122.737V135.15C161.239 135.427 161.015 135.65 160.739 135.65H138.479C138.202 135.65 137.979 135.427 137.979 135.15V122.737C137.979 122.461 138.202 122.237 138.479 122.237H160.739ZM138.979 134.65H160.239V123.237H138.979V134.65Z"
  />
  <path
    d="M176.369 134.649C176.502 134.649 176.631 134.703 176.724 134.798L182.01 140.148C182.151 140.292 182.193 140.507 182.115 140.693C182.037 140.879 181.855 141 181.653 141H117.56C117.366 141 117.189 140.887 117.107 140.711C117.025 140.535 117.053 140.327 117.178 140.179L121.671 134.828C121.766 134.715 121.906 134.65 122.054 134.649H176.369ZM118.633 140H180.457L176.16 135.649H122.287L118.633 140Z"
  />
  <path
    d="M240.611 7.27734C240.611 6.66996 240.119 6.17773 239.512 6.17773H59.9453C59.3379 6.17773 58.8457 6.66996 58.8457 7.27734V115.88C58.8457 116.487 59.3379 116.979 59.9453 116.979H239.512C240.119 116.979 240.611 116.487 240.611 115.88V7.27734ZM241.611 115.88C241.611 117.04 240.671 117.979 239.512 117.979H59.9453C58.7856 117.979 57.8457 117.04 57.8457 115.88V7.27734C57.8457 6.11767 58.7856 5.17773 59.9453 5.17773H239.512C240.671 5.17773 241.611 6.11767 241.611 7.27734V115.88Z"
  />
  <path
    d="M210.843 24.2861C210.813 24.9505 210.402 25.5411 209.782 25.7969L208.27 26.4248C207.652 26.681 206.942 26.5568 206.449 26.1055V26.1045L204.387 24.2256L202.226 26.3877L204.104 28.4492C204.531 28.9149 204.661 29.5681 204.467 30.1523L204.424 30.2686L203.797 31.7832L203.796 31.7842C203.541 32.3981 202.954 32.8117 202.285 32.8418L202.286 32.8428L199.5 32.9707V36.0283L202.286 36.1572H202.285C202.954 36.1872 203.541 36.602 203.796 37.2158L203.797 37.2168L204.424 38.7314L204.467 38.8477C204.661 39.4318 204.532 40.085 204.105 40.5508L204.104 40.5498L202.226 42.6113L204.389 44.7734L206.449 42.8945C206.912 42.4706 207.566 42.3369 208.153 42.5322L208.27 42.5752L209.783 43.2031H209.784C210.402 43.4596 210.813 44.0496 210.843 44.7139L210.971 47.5H214.029L214.158 44.7139C214.188 44.0493 214.599 43.4594 215.217 43.2031L216.731 42.5752L216.848 42.5322C217.435 42.3368 218.088 42.4723 218.55 42.8936L220.611 44.7734L222.772 42.6113L220.894 40.5488V40.5479C220.444 40.0557 220.319 39.3483 220.574 38.7314L220.575 38.7305L221.204 37.2158C221.459 36.5998 222.048 36.1876 222.713 36.1572L225.499 36.0283V32.9707L222.713 32.8428V32.8418C222.048 32.8113 221.459 32.4001 221.204 31.7842L220.575 30.2695L220.573 30.2646C220.322 29.6515 220.443 28.9437 220.896 28.4492L222.773 26.3877L220.611 24.2256L218.55 26.1064C218.058 26.5544 217.35 26.6809 216.731 26.4238V26.4248L215.217 25.7969V25.7959C214.598 25.5397 214.188 24.9497 214.158 24.2861L214.029 21.5H210.971L210.843 24.2861ZM217.072 34.5C217.072 32.0533 215.151 30.056 212.735 29.9336L212.5 29.9277C209.976 29.9279 207.928 31.9746 207.928 34.5L207.934 34.7354C208.052 37.0732 209.927 38.9486 212.265 39.0674L212.5 39.0732C215.025 39.0732 217.072 37.0251 217.072 34.5ZM218.072 34.5C218.072 37.5773 215.577 40.0732 212.5 40.0732C209.424 40.0731 206.928 37.5775 206.928 34.5C206.928 31.4221 209.424 28.9279 212.5 28.9277C215.577 28.9277 218.072 31.4223 218.072 34.5ZM226.499 36.2969L226.485 36.4365C226.422 36.7549 226.149 37.0004 225.813 37.0156L222.759 37.1562C222.48 37.1689 222.234 37.3423 222.128 37.5996L221.498 39.1143C221.391 39.3728 221.444 39.669 221.633 39.875L223.692 42.1348C223.95 42.42 223.941 42.8577 223.67 43.1299L221.13 45.6699L221.021 45.7598C220.75 45.9401 220.383 45.9185 220.135 45.6924L217.876 43.6318C217.669 43.4436 217.372 43.3921 217.114 43.499L215.6 44.127C215.342 44.2339 215.17 44.4803 215.157 44.7598L215.016 47.8135L214.995 47.9531C214.917 48.2682 214.633 48.5 214.297 48.5H210.703C210.367 48.4998 210.082 48.2681 210.004 47.9531L209.984 47.8135L209.844 44.7598C209.833 44.5151 209.699 44.2955 209.493 44.1729L209.4 44.127L207.887 43.499C207.629 43.3921 207.331 43.4438 207.125 43.6318L204.865 45.6924C204.58 45.9509 204.143 45.942 203.871 45.6699L201.33 43.1299C201.092 42.8918 201.054 42.5267 201.223 42.248L201.308 42.1348L203.368 39.875C203.533 39.6947 203.592 39.4455 203.532 39.2129L203.5 39.1143L202.873 37.5996C202.766 37.3421 202.52 37.1688 202.24 37.1562L199.187 37.0156C198.851 37.0002 198.577 36.7548 198.514 36.4365L198.5 36.2969V32.7031C198.5 32.3191 198.803 32.0019 199.187 31.9844L202.24 31.8438C202.485 31.8327 202.704 31.6988 202.826 31.4932L202.873 31.4004L203.5 29.8857C203.594 29.6594 203.566 29.4044 203.432 29.2061L203.368 29.125L201.308 26.8643C201.081 26.616 201.06 26.2495 201.241 25.9795L201.331 25.8701L203.869 23.3301C204.142 23.0581 204.58 23.0484 204.864 23.3076L207.125 25.3682C207.305 25.5328 207.555 25.5937 207.788 25.5342L207.887 25.501L209.401 24.873C209.627 24.7799 209.786 24.5793 209.831 24.3438L209.844 24.2402L209.984 21.1865C210 20.8503 210.245 20.5767 210.563 20.5137L210.704 20.5H214.297C214.681 20.5 214.998 20.8031 215.016 21.1875L215.157 24.2402C215.17 24.5197 215.342 24.7666 215.6 24.873L217.114 25.501C217.34 25.595 217.595 25.5663 217.794 25.4316L217.876 25.3682L220.135 23.3076C220.419 23.0481 220.857 23.0588 221.13 23.3301L223.67 25.8701C223.941 26.1423 223.95 26.5806 223.692 26.8643L221.633 29.125L221.568 29.2061C221.434 29.4043 221.405 29.6595 221.498 29.8857L222.128 31.4004C222.234 31.6577 222.48 31.831 222.759 31.8438L225.813 31.9844C226.197 32.0016 226.499 32.3189 226.499 32.7031V36.2969Z"
  />
  <path
    d="M158.39 92.126C158.39 90.0126 158.774 87.9186 159.519 85.9443H139.705C140.444 87.9016 140.835 89.9938 140.835 92.126V94.7227C140.835 97.0505 141.76 99.2827 143.406 100.929C145.052 102.575 147.285 103.5 149.613 103.5C151.941 103.5 154.173 102.575 155.819 100.929C157.465 99.2827 158.39 97.0505 158.39 94.7227V92.126ZM149.613 37.0605C144.977 37.0605 140.444 38.435 136.589 41.0107C132.733 43.5865 129.729 47.2478 127.954 51.5312C126.179 55.8148 125.714 60.5286 126.618 65.0762C127.522 69.6234 129.754 73.8002 133.032 77.0791L135.711 79.7539C136.956 80.9988 137.994 82.4141 138.804 83.9443H160.422C161.236 82.4041 162.277 80.9905 163.513 79.7539L166.193 77.0791C169.471 73.8002 171.703 69.6234 172.607 65.0762C173.511 60.5286 173.047 55.8148 171.272 51.5312C169.498 47.2478 166.493 43.5866 162.638 41.0107C158.782 38.435 154.25 37.0606 149.613 37.0605ZM117.793 28.6797C118.183 28.2894 118.816 28.2894 119.207 28.6797L122.663 32.1367C123.053 32.5272 123.053 33.1603 122.663 33.5508C122.272 33.941 121.639 33.9412 121.249 33.5508L117.793 30.0938C117.402 29.7032 117.402 29.0701 117.793 28.6797ZM180.018 28.6797C180.409 28.2894 181.042 28.2895 181.432 28.6797C181.823 29.0702 181.823 29.7032 181.432 30.0938L177.976 33.5508C177.586 33.9412 176.953 33.9411 176.562 33.5508C176.172 33.1603 176.172 32.5272 176.562 32.1367L180.018 28.6797ZM148.613 21.3887V16.5C148.613 15.9477 149.061 15.5 149.613 15.5C150.165 15.5002 150.613 15.9478 150.613 16.5V21.3887C150.613 21.9408 150.165 22.3885 149.613 22.3887C149.061 22.3887 148.613 21.941 148.613 21.3887ZM160.39 94.7227C160.39 97.5809 159.255 100.323 157.234 102.344C155.213 104.365 152.471 105.5 149.613 105.5C146.755 105.5 144.013 104.365 141.992 102.344C139.971 100.323 138.835 97.5809 138.835 94.7227V92.126C138.835 88.016 137.2 84.071 134.299 81.1689L131.619 78.4951L131.618 78.4941C128.06 74.9354 125.638 70.4013 124.657 65.4658C123.676 60.5303 124.179 55.4145 126.105 50.7656C128.031 46.1167 131.293 42.1432 135.477 39.3477C139.662 36.5522 144.581 35.0605 149.613 35.0605C154.645 35.0606 159.564 36.5523 163.748 39.3477C167.932 42.1432 171.194 46.1167 173.12 50.7656C175.046 55.4145 175.55 60.5304 174.569 65.4658C173.588 70.4013 171.165 74.9354 167.607 78.4941L164.928 81.1689L164.927 81.168C163.488 82.6069 162.348 84.3164 161.569 86.1963C160.791 88.0763 160.39 90.0912 160.39 92.126V94.7227Z"
  />
  <path
    d="M201.95 50.1549C201.454 50.5089 200.796 50.5479 200.261 50.246L200.261 50.2446L199.119 49.6044C198.585 49.305 198.273 48.7241 198.319 48.1144L198.468 46.0758L196.42 45.8295L196.083 47.8428L196.059 47.9554C195.925 48.5114 195.5 48.9478 194.953 49.1014L194.952 49.102L193.689 49.4552L193.689 49.4558C193.102 49.6194 192.471 49.4308 192.071 48.9656L192.071 48.967L190.739 47.4214L189.114 48.6971L190.299 50.3579L190.299 50.3571C190.634 50.825 190.684 51.4319 190.443 51.9435L190.392 52.0451L190.391 52.0457L189.748 53.189C189.45 53.7176 188.872 54.0358 188.256 53.989L188.256 53.9876L186.222 53.8382L185.976 55.8876L187.989 56.2249C188.594 56.3255 189.084 56.7691 189.248 57.3562L189.247 57.3555L189.601 58.6186C189.766 59.2098 189.573 59.8403 189.111 60.2379L189.11 60.2371L187.567 61.5698L188.842 63.1934L190.502 62.009L190.597 61.9467C191.08 61.6512 191.689 61.6346 192.191 61.9165L193.334 62.5589C193.867 62.8584 194.179 63.4395 194.134 64.0489L194.134 64.0497L193.984 66.0847L196.034 66.3312L196.371 64.3199C196.47 63.7167 196.91 63.2251 197.499 63.0598L197.501 63.0599L198.765 62.707C199.353 62.5421 199.983 62.7336 200.381 63.1956L201.714 64.7405L203.338 63.4649L202.152 61.8047L202.153 61.8041C201.799 61.3076 201.762 60.6502 202.062 60.1176L202.703 58.9741L202.706 58.9696C202.987 58.4749 203.512 58.1677 204.082 58.1697L204.196 58.1744L206.231 58.3237L206.477 56.2738L204.464 55.9378L204.462 55.9376C203.862 55.8367 203.37 55.3979 203.205 54.8065L202.853 53.5462L202.826 53.4345C202.711 52.8762 202.909 52.2995 203.341 51.9268L204.886 50.5935L203.611 48.9699L201.95 50.1549ZM198.485 58.9579C200.024 57.749 200.332 55.5536 199.216 53.9735L199.103 53.8222C197.856 52.2339 195.556 51.9567 193.967 53.2046L193.822 53.3249C192.409 54.5546 192.156 56.6607 193.237 58.1898L193.349 58.3411C194.597 59.9295 196.896 60.2056 198.485 58.9579ZM202.013 65.7767C201.772 65.9664 201.422 65.9339 201.221 65.7009L199.624 63.8487C199.478 63.6794 199.248 63.61 199.033 63.6706L197.769 64.0228C197.554 64.0833 197.393 64.2626 197.357 64.483L196.953 66.8959C196.901 67.199 196.621 67.4091 196.316 67.3729L193.463 67.0305L193.353 67.0055C193.141 66.9362 192.987 66.7494 192.959 66.5283L192.956 66.4153L193.137 63.9763C193.153 63.7533 193.039 63.5408 192.844 63.4313L191.701 62.7882C191.506 62.6787 191.265 62.6922 191.083 62.8224L189.093 64.2418L188.995 64.2983C188.759 64.4053 188.472 64.3412 188.305 64.1298L186.53 61.8687L186.47 61.7732C186.369 61.5746 186.392 61.3334 186.529 61.1578L186.607 61.0768L188.458 59.48C188.607 59.3522 188.679 59.1596 188.655 58.9694L188.638 58.8881L188.284 57.625C188.224 57.4099 188.044 57.2478 187.824 57.2115L185.412 56.8087L185.303 56.7789C185.06 56.6866 184.903 56.4386 184.935 56.1713L185.278 53.3171C185.315 53.012 185.585 52.7891 185.893 52.8117L188.332 52.9917C188.555 53.0085 188.766 52.8938 188.876 52.6989L189.519 51.5556C189.628 51.3611 189.616 51.1211 189.485 50.9388L188.065 48.9486C187.887 48.6985 187.937 48.35 188.179 48.1603L190.439 46.3852C190.681 46.1954 191.031 46.2294 191.231 46.4624L192.828 48.3139C192.956 48.4626 193.149 48.5335 193.339 48.5088L193.419 48.4928L194.682 48.139C194.871 48.0861 195.018 47.9429 195.076 47.76L195.096 47.6797L195.5 45.2668C195.55 44.9637 195.831 44.7528 196.137 44.7898L198.989 45.132C199.295 45.1691 199.518 45.4402 199.496 45.7473L199.316 48.187C199.301 48.3814 199.386 48.5687 199.539 48.6861L199.608 48.732L200.752 49.3745C200.923 49.4706 201.128 49.4724 201.299 49.3839L201.369 49.3409L203.359 47.9207C203.61 47.742 203.957 47.7921 204.147 48.0335L205.923 50.2946C206.112 50.5361 206.078 50.8853 205.846 51.0865L203.995 52.6841C203.825 52.8301 203.755 53.0597 203.815 53.2746L204.168 54.5383C204.221 54.7269 204.365 54.8733 204.548 54.9318L204.628 54.9519L207.04 55.3546C207.344 55.4051 207.554 55.687 207.518 55.9928L207.175 58.8448C207.138 59.1502 206.867 59.3732 206.561 59.351L204.121 59.171C203.898 59.1541 203.686 59.2685 203.575 59.4629L202.933 60.6077C202.824 60.8015 202.837 61.0421 202.966 61.2237L204.387 63.2147C204.566 63.4647 204.516 63.8118 204.274 64.0016L202.013 65.7767ZM199.103 59.7444C197.08 61.3331 194.151 60.9815 192.563 58.9587C190.974 56.9361 191.326 54.0071 193.349 52.4181C195.373 50.829 198.301 51.182 199.89 53.2046C201.478 55.2275 201.126 58.1554 199.103 59.7444Z"
  />
  <path
    d="M92.2354 20.5011C92.3857 20.4943 92.5362 20.5182 92.6777 20.5705C92.8192 20.6227 92.9495 20.7025 93.0605 20.8058C93.1716 20.9092 93.2614 21.0342 93.3252 21.173C93.389 21.3118 93.4259 21.4623 93.4326 21.6154C93.4392 21.7682 93.4156 21.9208 93.3643 22.0646L84.1914 47.7316C84.111 47.9568 83.9643 48.1517 83.7715 48.2892L83.6201 48.38C83.4632 48.4587 83.2898 48.5002 83.1133 48.5002V47.5002C83.1392 47.5002 83.1661 47.492 83.1904 47.4748C83.2151 47.4572 83.2367 47.4293 83.249 47.3947L92.4229 21.7287L92.4336 21.6584C92.4325 21.6342 92.4265 21.6108 92.417 21.59C92.4075 21.5694 92.3946 21.552 92.3799 21.5382C92.3651 21.5245 92.3486 21.5141 92.332 21.508C92.3155 21.5019 92.298 21.4994 92.2812 21.5002C92.2644 21.5009 92.2469 21.505 92.2305 21.5129C92.2141 21.5207 92.1985 21.5326 92.1846 21.548C92.1706 21.5636 92.1583 21.5826 92.1504 21.6046L82.9766 47.2716C82.9687 47.2937 82.9648 47.3187 82.9658 47.3429C82.9669 47.3671 82.9729 47.3904 82.9824 47.4113C82.992 47.4322 83.0056 47.4502 83.0205 47.464C83.0346 47.4771 83.0506 47.4853 83.0664 47.4914C83.0816 47.4964 83.0978 47.5001 83.1133 47.5002V48.5002L83.0137 48.4963C82.9474 48.4905 82.8818 48.4782 82.8174 48.4611L82.7217 48.4318C82.6155 48.3926 82.5159 48.3373 82.4258 48.2687L82.3389 48.1955C82.2277 48.092 82.137 47.9672 82.0732 47.8283C82.0255 47.7242 81.9935 47.6135 81.9775 47.5002L81.9668 47.3859C81.9602 47.2328 81.9836 47.0797 82.0352 46.9357L91.209 21.2687C91.2604 21.1247 91.3388 20.9921 91.4404 20.8791C91.542 20.7661 91.6645 20.6744 91.8008 20.6095C91.9371 20.5447 92.0851 20.508 92.2354 20.5011ZM78.6309 27.505C78.9338 27.5332 79.2136 27.6822 79.4082 27.9201C79.6027 28.1578 79.6965 28.4646 79.6689 28.7726L79.6533 28.8879C79.6034 29.1512 79.4651 29.3905 79.2607 29.5636L73.4385 34.5002L79.2607 39.4367C79.3797 39.5336 79.478 39.654 79.5508 39.7902C79.6236 39.9265 79.6693 40.0763 79.6846 40.2306C79.6998 40.3848 79.6851 40.5405 79.6406 40.6886L79.6016 40.798C79.5576 40.9049 79.4979 41.0046 79.4248 41.0939L79.3477 41.1798C79.2665 41.261 79.1736 41.3294 79.0723 41.383L78.9678 41.4308C78.862 41.4737 78.7506 41.5005 78.6367 41.5099L78.5225 41.5138C78.4466 41.5124 78.371 41.5031 78.2969 41.4865L78.1865 41.4562C78.0417 41.4079 77.9081 41.3302 77.793 41.2287L70.9121 35.3957C70.8153 35.3136 70.7333 35.2156 70.668 35.1066L70.6084 34.9943C70.5371 34.8394 70.5 34.6702 70.5 34.4992C70.5 34.371 70.5211 34.244 70.5615 34.1232L70.6084 34.005C70.6618 33.889 70.7334 33.7825 70.8203 33.6906L70.9121 33.6037L77.793 27.7697C78.0267 27.5719 78.3281 27.4769 78.6309 27.505ZM103.9 34.4992C103.9 34.4723 103.894 34.4462 103.884 34.423C103.878 34.4113 103.872 34.4003 103.864 34.3908L103.841 34.3664L96.9609 28.5324C96.9458 28.5197 96.9287 28.5113 96.9121 28.506C96.8955 28.5008 96.8781 28.4986 96.8613 28.5002C96.8446 28.5018 96.8277 28.5071 96.8115 28.5158C96.7952 28.5245 96.7791 28.5374 96.7656 28.5539C96.7382 28.5876 96.7231 28.6344 96.7275 28.6838C96.732 28.7331 96.7552 28.7747 96.7861 28.8009L103.508 34.5002L96.7861 40.1994L96.7783 40.2062L96.7715 40.2121C96.7559 40.2248 96.7412 40.2417 96.7305 40.2619C96.7198 40.282 96.7133 40.3051 96.7109 40.3293C96.7086 40.3535 96.7109 40.3777 96.7178 40.4005C96.7247 40.4235 96.7354 40.4444 96.749 40.4611C96.7625 40.4775 96.7786 40.4895 96.7949 40.4982C96.8114 40.5069 96.8287 40.5124 96.8457 40.5138C96.8627 40.5152 96.8806 40.5126 96.8975 40.507C96.9142 40.5013 96.9312 40.492 96.9463 40.4787L96.9531 40.4728L96.9609 40.466L103.841 34.633L103.864 34.6076C103.871 34.5981 103.878 34.5879 103.884 34.5763C103.895 34.553 103.9 34.5263 103.9 34.4992ZM71.5 34.4992C71.5 34.5263 71.5059 34.553 71.5166 34.5763C71.5273 34.5995 71.5426 34.6186 71.5596 34.633L78.4395 40.466L78.4463 40.4728L78.4541 40.4787C78.4693 40.4921 78.4861 40.5014 78.5029 40.507C78.5198 40.5126 78.5376 40.5152 78.5547 40.5138C78.5716 40.5124 78.5891 40.5068 78.6055 40.4982C78.6218 40.4895 78.6379 40.4775 78.6514 40.4611C78.665 40.4444 78.6757 40.4235 78.6826 40.4005C78.6894 40.3778 78.6918 40.3535 78.6895 40.3293C78.687 40.305 78.6797 40.282 78.6689 40.2619C78.6582 40.2417 78.6444 40.2247 78.6289 40.2121L78.6211 40.2062L78.6133 40.1994L71.8916 34.5002L78.6133 28.8009C78.6443 28.7747 78.6684 28.7331 78.6729 28.6838C78.6773 28.6343 78.6613 28.5876 78.6338 28.5539C78.6067 28.5207 78.5715 28.5033 78.5381 28.5002C78.5049 28.4971 78.4688 28.5077 78.4385 28.5334L71.5596 34.3664C71.5426 34.3808 71.5273 34.3998 71.5166 34.423C71.506 34.4462 71.5 34.4722 71.5 34.4992ZM104.894 34.6271C104.88 34.754 104.845 34.8781 104.792 34.9943L104.732 35.1066C104.667 35.2157 104.584 35.3135 104.487 35.3957L97.6074 41.2287C97.4922 41.3303 97.3578 41.4079 97.2129 41.4562L97.1035 41.4865C97.0294 41.5031 96.9538 41.5124 96.8779 41.5138L96.7637 41.5099C96.6117 41.4974 96.4635 41.4544 96.3281 41.383C96.2267 41.3294 96.1339 41.261 96.0527 41.1798L95.9756 41.0939C95.878 40.9747 95.8044 40.837 95.7598 40.6886C95.7263 40.5773 95.7098 40.4618 95.71 40.3459L95.7158 40.2306C95.7273 40.1149 95.7556 40.0015 95.7998 39.8947L95.8486 39.7902C95.9215 39.6539 96.0206 39.5336 96.1396 39.4367L101.962 34.5002L96.1396 29.5636C95.9352 29.3905 95.797 29.1513 95.7471 28.8879L95.7314 28.7726C95.7073 28.5032 95.776 28.235 95.9238 28.0129L95.9922 27.9201C96.0644 27.8318 96.1492 27.7555 96.2432 27.6925L96.3398 27.6339C96.4398 27.5805 96.5468 27.5422 96.6572 27.5207L96.7695 27.505C96.9193 27.4912 97.0702 27.5075 97.2139 27.5529C97.3576 27.5984 97.4917 27.6717 97.6074 27.7697L104.487 33.6037C104.616 33.7132 104.721 33.8502 104.792 34.005C104.863 34.1597 104.9 34.3284 104.9 34.4992L104.894 34.6271Z"
  />
  <path
    d="M99.6483 82.2859C99.8685 82.2859 100.072 82.3603 100.233 82.4852L100.361 82.6033L100.393 82.6404C101.497 83.9845 102.2 85.6032 102.423 87.3162C102.646 89.0293 102.381 90.7697 101.657 92.3436L101.516 92.6356C100.788 94.0839 99.6889 95.3238 98.3241 96.2313L98.0487 96.408C96.656 97.2665 95.0583 97.7559 93.412 97.826L92.9999 97.8328H81.6015C81.4096 97.8329 81.2178 97.8274 81.0263 97.8162L84.1737 100.906C84.3306 101.061 84.4274 101.265 84.4472 101.482C84.4668 101.7 84.4086 101.917 84.2821 102.096L84.1737 102.227L84.0468 102.332C83.9116 102.425 83.7529 102.481 83.5868 102.496C83.4208 102.51 83.255 102.482 83.1054 102.414L82.9618 102.334L82.829 102.227L78.079 97.5604C77.9221 97.4057 77.8253 97.2017 77.8056 96.9842C77.7907 96.821 77.8196 96.6577 77.8886 96.5106L77.9716 96.3699L78.079 96.2391L82.829 91.5721C82.9965 91.4069 83.2208 91.3094 83.4579 91.2986C83.6951 91.2879 83.9279 91.365 84.1102 91.5145C84.2925 91.6639 84.4115 91.8751 84.4432 92.1063C84.4749 92.3373 84.4175 92.572 84.2821 92.7635L84.1737 92.8943L81.0634 95.9481L81.33 95.9627L81.6015 95.9666H92.9999C94.3451 95.9667 95.6644 95.6155 96.8241 94.952L97.0546 94.8152C98.1924 94.11 99.1177 93.1213 99.7382 91.952L99.8583 91.7156C100.438 90.5228 100.683 89.2017 100.573 87.8875L100.547 87.6248C100.389 86.3121 99.8799 85.0654 99.0731 84.0115L98.9081 83.8035C98.7966 83.6663 98.7261 83.5005 98.7059 83.326C98.6859 83.1517 98.7166 82.9754 98.7938 82.8172C98.8712 82.659 98.9923 82.5251 99.1434 82.4315C99.2946 82.3379 99.4697 82.2863 99.6483 82.2859ZM91.0136 74.5037C91.235 74.4843 91.4568 74.5414 91.6395 74.6658L91.7724 74.7723L96.5214 79.4393L96.6298 79.5701C96.7391 79.7258 96.7976 79.9103 96.7977 80.0994C96.7977 80.2888 96.7392 80.4739 96.6298 80.6297L96.5214 80.7606L91.7724 85.4275L91.6395 85.534L91.5155 85.6053C91.3866 85.6669 91.244 85.699 91.0995 85.699L90.9569 85.6883C90.8624 85.6741 90.7704 85.6464 90.6845 85.6053L90.5604 85.534L90.4276 85.4275L90.3192 85.2967C90.2098 85.1408 90.1513 84.9558 90.1513 84.7664C90.1513 84.6243 90.1842 84.4849 90.247 84.3582L90.3192 84.2361L90.4276 84.1053L93.537 81.0516L93.2714 81.0369L92.9999 81.033H81.6015L81.3329 81.0379C79.9903 81.0845 78.6824 81.4799 77.5438 82.1863C76.3296 82.9397 75.3575 84.0158 74.7401 85.2899L74.6288 85.5311C74.0947 86.742 73.8958 88.072 74.0556 89.3856C74.226 90.7868 74.7975 92.1124 75.703 93.2078C75.8542 93.406 75.9192 93.655 75.8837 93.9002L75.8661 93.991C75.814 94.2 75.6892 94.3862 75.5126 94.5164L75.4354 94.5672C75.3557 94.6147 75.2693 94.6508 75.1786 94.6736L75.0868 94.6922C75.0251 94.7015 74.9626 94.7047 74.9003 94.702L74.8075 94.6942C74.5578 94.6591 74.3329 94.5272 74.1815 94.3289C73.1541 93.067 72.4781 91.5665 72.2186 89.9744L72.1727 89.6541C71.9555 87.9435 72.2243 86.207 72.9501 84.6375C73.6305 83.1661 74.6878 81.8958 76.0155 80.9481L76.2841 80.7625C77.7383 79.7981 79.4365 79.2478 81.1893 79.1736L81.6015 79.1668H92.9999C93.1935 79.1668 93.3852 79.1722 93.5751 79.1834L90.4276 76.0936L90.3192 75.9637C90.1926 75.7841 90.1344 75.5661 90.1542 75.3484C90.174 75.1309 90.2706 74.9269 90.4276 74.7723C90.5849 74.6181 90.7923 74.5232 91.0136 74.5037Z"
  />
  <path
    d="M216.115 74.2119C216.365 73.5262 216.5 72.7798 216.5 72H217.5C217.5 72.8953 217.345 73.7578 217.055 74.5547L225.567 83.0674L225.676 83.1816C226.203 83.7643 226.5 84.5265 226.5 85.3174H225.5C225.5 84.7399 225.269 84.1829 224.86 83.7744L215.896 74.8105L216.115 74.2119ZM222.75 83.625C222.489 83.625 222.237 83.7159 222.037 83.8799L221.954 83.9541C221.743 84.1651 221.625 84.4516 221.625 84.75C221.625 85.0484 221.743 85.3349 221.954 85.5459C222.165 85.7569 222.452 85.875 222.75 85.875C223.048 85.875 223.335 85.7569 223.546 85.5459C223.757 85.3349 223.875 85.0484 223.875 84.75C223.875 84.4889 223.784 84.2373 223.62 84.0371L223.546 83.9541C223.335 83.7431 223.048 83.625 222.75 83.625ZM210 65.5C209.584 65.5 209.177 65.5416 208.78 65.6172L211.986 68.8223C212.313 69.1492 212.5 69.5958 212.5 70.0596V72.75C212.5 73.7148 211.715 74.5 210.75 74.5H208.06C207.596 74.5 207.149 74.3133 206.822 73.9863L203.616 70.7812C203.541 71.1778 203.5 71.5846 203.5 72C203.5 75.5915 206.409 78.5 210 78.5C210.776 78.5 211.525 78.3616 212.217 78.1133L212.813 77.8994L221.774 86.8604C222.183 87.2687 222.74 87.5 223.317 87.5C224.523 87.4999 225.5 86.5228 225.5 85.3174H226.5C226.5 87.02 225.163 88.4106 223.481 88.4961L223.317 88.5C222.526 88.5 221.764 88.2033 221.182 87.6758L221.067 87.5674L212.555 79.0547C211.758 79.3406 210.895 79.5 210 79.5C205.856 79.5 202.5 76.1438 202.5 72C202.5 71.2828 202.604 70.5887 202.791 69.9277C202.937 69.4266 203.559 69.3095 203.93 69.6797L207.529 73.2793C207.67 73.4199 207.863 73.5 208.06 73.5H210.75C211.163 73.5 211.5 73.1625 211.5 72.75V70.0596C211.5 69.912 211.455 69.7671 211.373 69.6445L211.279 69.5293L207.68 65.9297C207.309 65.5595 207.422 64.9366 207.928 64.791C208.589 64.6035 209.283 64.5 210 64.5C214.144 64.5 217.5 67.8562 217.5 72H216.5C216.5 68.4085 213.591 65.5 210 65.5ZM222.75 82.625C223.314 82.625 223.854 82.8486 224.253 83.2471C224.651 83.6456 224.875 84.1864 224.875 84.75C224.875 85.3136 224.651 85.8544 224.253 86.2529C223.854 86.6514 223.314 86.875 222.75 86.875C222.186 86.875 221.646 86.6514 221.247 86.2529C220.849 85.8544 220.625 85.3136 220.625 84.75C220.625 84.1864 220.849 83.6456 221.247 83.2471C221.646 82.8486 222.186 82.625 222.75 82.625Z"
  />
</svg>