<svg viewBox="0 0 300 141">
  <path
    d="M71.834 1.80762H68.1973L32.5 8.01757V61.9911L67.9834 68.1932H71.834V61.037H97.5215C98.2286 61.0073 98.9079 60.9829 99.4561 60.8085C99.9509 60.651 100.15 60.4403 100.216 60.0985L100.22 60.079C100.441 59.0376 100.498 57.9563 100.5 56.8183C100.502 55.757 100.449 54.4567 100.468 53.328L100.5 11.9316C100.471 11.2067 100.477 10.6034 100.397 9.98338C100.328 9.45529 100.204 9.01067 99.9825 8.63378C99.6123 8.42063 99.1751 8.30294 98.6534 8.23925C98.0308 8.16325 97.4384 8.17476 96.7051 8.1455H71.834V1.80762ZM97.7071 58.5575V10.9219H72.834V14.3252H79.1953V19.8916H72.834V23.0722H79.1953V28.6386H72.834V31.8193H79.1953V37.3857H72.834V40.5663H79.1953V46.1327H72.834V49.3134H79.1953V54.8798H72.834V58.5575H97.7071ZM93.5088 49.3134V54.8798H82.376V49.3134H93.5088ZM83.376 53.8798H92.5088V50.3134H83.376V53.8798ZM93.5088 40.5663V46.1327H82.376V40.5663H93.5088ZM83.376 45.1327H92.5088V41.5663H83.376V45.1327ZM93.5088 31.8193V37.3857H82.376V31.8193H93.5088ZM83.376 36.3857H92.5088V32.8193H83.376V36.3857ZM93.5088 23.0722V28.6386H82.376V23.0722H93.5088ZM83.376 27.6386H92.5088V24.0722H83.376V27.6386ZM93.5088 14.3252V19.8916H82.376V14.3252H93.5088ZM83.376 18.8916H92.5088V15.3261H83.376V18.8916ZM98.7071 59.5575H71.834V53.8798H78.1953V50.3134H71.834V45.1327H78.1953V41.5663H71.834V36.3857H78.1953V32.8193H71.834V27.6386H78.1953V24.0722H71.834V18.8916H78.1953V15.3261H71.834V9.92186H98.7071V59.5575ZM96.7129 7.1455C98.0569 7.20114 99.5363 7.10511 100.705 7.90819C101.524 9.08506 101.444 10.5809 101.5 11.9326L101.468 53.329C101.428 55.643 101.682 58.0049 101.197 60.287C100.919 61.7344 99.3625 61.946 98.0879 62.0136L97.5635 62.037H72.834V69.1932H67.8955L31.5 62.8319V7.17675L68.1104 0.807617H72.834V7.1455H96.7129Z"
  />
  <path
    d="M240.831 71H237.164L201.5 77.3652V132.65L236.95 139H240.831V132.513H265.682C266.431 132.478 267.022 132.491 267.654 132.411C268.176 132.345 268.608 132.222 268.97 132.003C269.241 131.506 269.369 130.925 269.424 130.236C269.454 129.853 269.461 129.457 269.464 129.033C269.467 128.636 269.468 128.204 269.487 127.782V79.625L269.491 79.5801C269.603 78.3379 268.616 77.3856 267.441 77.5068L267.391 77.5117H240.831V71ZM266.703 80.3535H241.831V84.6514H262.504V87.9072H241.831V91.9766H262.504V95.2324H241.831V99.3027H262.504V102.558H241.831V106.628H262.504V109.884H241.831V113.953H262.504V117.209H241.831V121.279H262.504V124.535H241.831V129.646H266.703V80.3535ZM267.703 130.646H240.831V123.535H261.504V122.279H240.831V116.209H261.504V114.953H240.831V108.884H261.504V107.628H240.831V101.558H261.504V100.303H240.831V94.2324H261.504V92.9766H240.831V86.9072H261.504V85.6514H240.831V79.3535H267.703V130.646ZM267.339 76.5117L267.508 76.499C269.244 76.418 270.649 77.8722 270.487 79.6699V127.782C270.408 129.426 270.646 131.25 269.716 132.707L269.494 132.854C268.668 133.357 267.695 133.444 266.735 133.479L265.7 133.513H241.831V140H236.861L200.5 133.488V76.5283L237.076 70H241.831V76.5117H267.339Z"
  />
  <path
    d="M137.25 53C128.377 52.125 121.5 44.6175 121.5 35.5C121.5 26.3825 128.377 18.875 137.25 18V53ZM156.5 37.2676C155.677 45.5625 149.098 52.1774 140.803 53V37.2676H156.5ZM141.803 51.8584C148.735 50.6962 154.199 45.2071 155.358 38.2676H141.803V51.8584ZM140.803 18C149.08 18.8226 155.677 25.4375 156.5 33.7324H140.803V18ZM141.803 32.7324H155.358C154.198 25.7943 148.722 20.3046 141.803 19.1416V32.7324ZM122.5 35.5C122.5 43.7239 128.427 50.5506 136.25 51.8584V19.1406C128.427 20.4484 122.5 27.2761 122.5 35.5Z"
  />
  <path
    d="M215.389 49.1113V53H176.5V49.1113H215.389ZM177.5 52H214.389V50.1113H177.5V52ZM184.277 33.5557V47.167H178.444V33.5557H184.277ZM194 23.833V47.167H188.167V23.833H194ZM203.723 29.667V47.167H197.889V29.667H203.723ZM213.445 18V47.167H207.612V18H213.445ZM208.612 46.167H212.445V19H208.612V46.167ZM198.889 46.167H202.723V30.667H198.889V46.167ZM189.167 46.167H193V24.833H189.167V46.167ZM179.444 46.167H183.277V34.5557H179.444V46.167Z"
  />
  <path
    d="M116.5 114.223H124.5V98.7227H86.5V114.223H94.5V122H116.5V114.223ZM113.5 119.111V111.333H97.5V119.111H113.5ZM121.5 111.333V101.611H89.5V111.333H93.5V107.444H117.5V111.333H121.5ZM117.5 102.583C118.065 102.582 118.54 102.768 118.924 103.142C119.308 103.515 119.5 103.977 119.5 104.527C119.501 105.077 119.31 105.539 118.926 105.912C118.542 106.285 118.067 106.473 117.5 106.473C117.005 106.474 116.58 106.331 116.225 106.045L116.076 105.914C115.692 105.541 115.5 105.078 115.5 104.527C115.499 104.046 115.645 103.633 115.939 103.287L116.074 103.144C116.458 102.77 116.933 102.583 117.5 102.583ZM113.5 97.7227V91.8887H97.5V97.7227H113.5ZM114.5 120.111H96.5V110.333H114.5V120.111ZM116.5 104.527C116.5 104.817 116.589 105.018 116.773 105.197C116.959 105.378 117.178 105.473 117.498 105.473H117.5C117.823 105.473 118.043 105.376 118.229 105.195C118.413 105.016 118.501 104.817 118.5 104.53V104.527L118.496 104.423C118.477 104.188 118.388 104.015 118.227 103.858C118.041 103.678 117.822 103.582 117.502 103.583H117.5C117.177 103.583 116.957 103.68 116.771 103.86C116.587 104.039 116.499 104.239 116.5 104.525V104.527ZM122.5 112.333H116.5V108.444H94.5V112.333H88.5V100.611H122.5V112.333ZM125.5 97.7227V115.223H117.5V123H93.5V115.223H85.5V97.7227H93.5V88H117.5V97.7227H125.5ZM114.5 97.7227H116.5V89H94.5V97.7227H96.5V90.8887H114.5V97.7227Z"
  />
  <path
    d="M154.797 122V123H151.516V122H154.797ZM155.438 121.359C155.438 121.189 155.37 121.026 155.25 120.906C155.13 120.786 154.967 120.719 154.797 120.719H151.516C149.454 120.719 147.781 119.046 147.781 116.984V113.703C147.781 113.533 147.714 113.37 147.594 113.25C147.474 113.13 147.311 113.062 147.141 113.062C146.971 113.062 146.808 113.13 146.688 113.25C146.567 113.37 146.5 113.533 146.5 113.703V116.984C146.5 118.315 147.028 119.591 147.969 120.531C148.909 121.472 150.185 122 151.516 122V123C150.02 123 148.582 122.443 147.479 121.443L147.262 121.238C146.134 120.11 145.5 118.58 145.5 116.984V113.703C145.5 113.268 145.673 112.851 145.98 112.543C146.288 112.235 146.706 112.062 147.141 112.062C147.576 112.062 147.993 112.235 148.301 112.543C148.608 112.851 148.781 113.268 148.781 113.703V116.984C148.781 118.494 150.006 119.719 151.516 119.719H154.797C155.232 119.719 155.649 119.892 155.957 120.199C156.265 120.507 156.438 120.924 156.438 121.359C156.438 121.794 156.265 122.212 155.957 122.52L155.837 122.629C155.545 122.868 155.178 123 154.797 123V122C154.967 122 155.13 121.933 155.25 121.812C155.37 121.692 155.438 121.529 155.438 121.359ZM174.484 122V123H171.203V122H174.484ZM179.5 116.984V113.703C179.5 113.533 179.433 113.37 179.312 113.25C179.192 113.13 179.029 113.062 178.859 113.062C178.689 113.062 178.526 113.13 178.406 113.25C178.286 113.37 178.219 113.533 178.219 113.703V116.984C178.219 119.046 176.546 120.719 174.484 120.719H171.203C171.033 120.719 170.87 120.786 170.75 120.906C170.63 121.026 170.562 121.189 170.562 121.359C170.562 121.529 170.63 121.692 170.75 121.812C170.87 121.933 171.033 122 171.203 122V123C170.822 123 170.455 122.868 170.163 122.629L170.043 122.52C169.735 122.212 169.562 121.794 169.562 121.359C169.562 120.924 169.735 120.507 170.043 120.199C170.351 119.892 170.768 119.719 171.203 119.719H174.484C175.994 119.719 177.219 118.494 177.219 116.984V113.703C177.219 113.268 177.392 112.851 177.699 112.543C178.007 112.235 178.424 112.062 178.859 112.062C179.294 112.062 179.712 112.235 180.02 112.543C180.327 112.851 180.5 113.268 180.5 113.703V116.984C180.5 118.58 179.866 120.11 178.738 121.238L178.521 121.443C177.418 122.443 175.98 123 174.484 123V122C175.815 122 177.091 121.472 178.031 120.531C178.972 119.591 179.5 118.315 179.5 116.984ZM165.188 115.438V116.438H160.812V115.438H165.188ZM159.172 114.797C159.172 114.362 159.345 113.944 159.652 113.637C159.96 113.329 160.377 113.156 160.812 113.156H161.359V97.8438H156.984V98.3906C156.984 98.8257 156.812 99.2431 156.504 99.5508L156.384 99.6602C156.092 99.8993 155.724 100.031 155.344 100.031V99.0312C155.514 99.0312 155.677 98.9639 155.797 98.8438C155.917 98.7236 155.984 98.5605 155.984 98.3906V96.8438H162.359V114.156H160.812C160.643 114.156 160.48 114.224 160.359 114.344C160.239 114.464 160.172 114.627 160.172 114.797C160.172 114.967 160.239 115.13 160.359 115.25C160.48 115.37 160.643 115.438 160.812 115.438V116.438C160.432 116.438 160.064 116.306 159.772 116.066L159.652 115.957C159.345 115.649 159.172 115.232 159.172 114.797ZM169.016 98.3906V97.8438H164.641V113.156H165.188C165.623 113.156 166.04 113.329 166.348 113.637C166.655 113.944 166.828 114.362 166.828 114.797C166.828 115.232 166.655 115.649 166.348 115.957L166.228 116.066C165.936 116.306 165.568 116.438 165.188 116.438V115.438C165.357 115.438 165.52 115.37 165.641 115.25C165.761 115.13 165.828 114.967 165.828 114.797C165.828 114.627 165.761 114.464 165.641 114.344C165.52 114.224 165.357 114.156 165.188 114.156H163.641V96.8438H170.016V98.3906C170.016 98.5605 170.083 98.7236 170.203 98.8438C170.323 98.9639 170.486 99.0312 170.656 99.0312V100.031C170.276 100.031 169.908 99.8993 169.616 99.6602L169.496 99.5508C169.188 99.2431 169.016 98.8257 169.016 98.3906ZM171.297 98.3906V96.2031C171.297 96.0332 171.23 95.8701 171.109 95.75C170.989 95.6299 170.826 95.5625 170.656 95.5625H155.344C155.174 95.5625 155.011 95.6299 154.891 95.75C154.77 95.8701 154.703 96.0332 154.703 96.2031V98.3906C154.703 98.5605 154.77 98.7236 154.891 98.8438C155.011 98.9639 155.174 99.0312 155.344 99.0312V100.031C154.963 100.031 154.596 99.8993 154.304 99.6602L154.184 99.5508C153.876 99.2431 153.703 98.8257 153.703 98.3906V96.2031C153.703 95.768 153.876 95.3506 154.184 95.043C154.491 94.7353 154.909 94.5625 155.344 94.5625H170.656C171.091 94.5625 171.509 94.7353 171.816 95.043C172.124 95.3506 172.297 95.768 172.297 96.2031V98.3906C172.297 98.8257 172.124 99.2431 171.816 99.5508L171.696 99.6602C171.404 99.8993 171.037 100.031 170.656 100.031V99.0312C170.826 99.0312 170.989 98.9639 171.109 98.8438C171.23 98.7236 171.297 98.5605 171.297 98.3906ZM147.781 97.2969V94.0156C147.781 91.954 149.454 90.2812 151.516 90.2812V91.2812C150.006 91.2812 148.781 92.5063 148.781 94.0156V97.2969C148.781 97.732 148.608 98.1494 148.301 98.457L148.181 98.5664C147.889 98.8056 147.521 98.9375 147.141 98.9375V97.9375C147.311 97.9375 147.474 97.8701 147.594 97.75C147.714 97.6299 147.781 97.4668 147.781 97.2969ZM177.219 97.2969V94.0156C177.219 92.5063 175.994 91.2812 174.484 91.2812V90.2812C176.546 90.2812 178.219 91.954 178.219 94.0156V97.2969C178.219 97.4668 178.286 97.6299 178.406 97.75C178.526 97.8701 178.689 97.9375 178.859 97.9375V98.9375C178.479 98.9375 178.111 98.8056 177.819 98.5664L177.699 98.457C177.392 98.1494 177.219 97.732 177.219 97.2969ZM174.484 90.2812V91.2812H171.203V90.2812H174.484ZM169.562 89.6406C169.562 89.2055 169.735 88.7881 170.043 88.4805C170.351 88.1728 170.768 88 171.203 88H174.484C176.08 88 177.61 88.6336 178.738 89.7617C179.866 90.8899 180.5 92.4202 180.5 94.0156V97.2969C180.5 97.732 180.327 98.1494 180.02 98.457L179.899 98.5664C179.607 98.8056 179.24 98.9375 178.859 98.9375V97.9375C179.029 97.9375 179.192 97.8701 179.312 97.75C179.433 97.6299 179.5 97.4668 179.5 97.2969V94.0156C179.5 92.6854 178.972 91.4094 178.031 90.4688C177.091 89.5281 175.815 89 174.484 89H171.203C171.033 89 170.87 89.0674 170.75 89.1875C170.63 89.3076 170.562 89.4707 170.562 89.6406C170.562 89.8105 170.63 89.9736 170.75 90.0938C170.87 90.2139 171.033 90.2812 171.203 90.2812V91.2812C170.822 91.2812 170.455 91.1493 170.163 90.9102L170.043 90.8008C169.735 90.4931 169.562 90.0757 169.562 89.6406ZM154.797 90.2812V91.2812H151.516V90.2812H154.797ZM155.438 89.6406C155.438 89.4707 155.37 89.3076 155.25 89.1875C155.13 89.0674 154.967 89 154.797 89H151.516C150.185 89 148.909 89.5281 147.969 90.4688C147.028 91.4094 146.5 92.6854 146.5 94.0156V97.2969C146.5 97.4668 146.567 97.6299 146.688 97.75C146.808 97.8701 146.971 97.9375 147.141 97.9375V98.9375C146.76 98.9375 146.393 98.8056 146.101 98.5664L145.98 98.457C145.673 98.1494 145.5 97.732 145.5 97.2969V94.0156C145.5 92.4202 146.134 90.8899 147.262 89.7617C148.39 88.6336 149.92 88 151.516 88H154.797C155.232 88 155.649 88.1728 155.957 88.4805C156.265 88.7881 156.438 89.2055 156.438 89.6406C156.438 90.0757 156.265 90.4931 155.957 90.8008L155.837 90.9102C155.545 91.1493 155.178 91.2812 154.797 91.2812V90.2812C154.967 90.2812 155.13 90.2139 155.25 90.0938C155.37 89.9736 155.438 89.8105 155.438 89.6406Z"
  />
  <path
    d="M269.5 49.1113V21.8877C269.501 21.0879 269.228 20.4269 268.651 19.8506C268.075 19.2743 267.413 19.0001 266.611 19H239.388C238.588 18.999 237.927 19.2723 237.351 19.8486C236.774 20.4249 236.5 21.0869 236.5 21.8887V49.1123C236.499 49.9121 236.772 50.5731 237.349 51.1494C237.925 51.7257 238.587 51.9999 239.389 52V53L239.19 52.9951C238.271 52.9535 237.47 52.6204 236.786 51.9951L236.642 51.8564C235.879 51.0943 235.499 50.1794 235.5 49.1113V21.8887C235.5 20.8862 235.835 20.0187 236.505 19.2861L236.644 19.1416C237.406 18.3794 238.321 17.9988 239.389 18H266.611L266.81 18.0049C267.794 18.0495 268.644 18.4289 269.358 19.1436C270.121 19.9057 270.501 20.8206 270.5 21.8887V49.1113L270.495 49.3096C270.451 50.2943 270.071 51.1438 269.356 51.8584C268.594 52.6206 267.679 53.0012 266.611 53H239.389V52H266.612C267.412 52.001 268.073 51.7277 268.649 51.1514C269.226 50.5751 269.5 49.9131 269.5 49.1113ZM266.611 49.1113V21.8887H239.389V49.1113H266.611ZM247.139 37.4727H246.223V41.3613H242.333V42.2773H246.223V46.167H247.139V42.2773H251.027V41.3613H247.139V37.4727ZM264.667 42.792V45.708H254.944V42.792H264.667ZM255.944 44.708H263.667V43.792H255.944V44.708ZM264.667 37.9307V40.8477H254.944V37.9307H264.667ZM255.944 39.8477H263.667V38.9307H255.944V39.8477ZM264.569 25.875L261.848 28.5977L264.569 31.417L262.527 33.458L259.806 30.7363L257.083 33.458L255.042 31.417L257.764 28.5977L255.042 25.875L257.083 23.833L259.806 26.5557L262.527 23.833L264.569 25.875ZM259.806 27.9697L257.083 25.2471L256.455 25.874L259.166 28.585L256.443 31.4043L257.083 32.0439L259.806 29.3223L262.527 32.043L263.167 31.4043L260.445 28.585L263.154 25.874L262.527 25.2471L259.806 27.9697ZM251.542 27.1387V30.0557H241.819V27.1387H251.542ZM242.819 29.0557H250.542V28.1387H242.819V29.0557ZM252.027 40.3613V43.2773H248.139V47.167H245.223V43.2773H241.333V40.3613H245.223V36.4727H248.139V40.3613H252.027ZM267.611 50.1113H238.389V20.8887H267.611V50.1113Z"
  />
  <path
    d="M30 119.111V91.8887C30.0001 90.7247 30.4621 89.6082 31.2852 88.7852C32.1082 87.9621 33.2247 87.5001 34.3887 87.5H54.04L66 99.46V119.111C65.9999 120.275 65.5379 121.392 64.7148 122.215C63.8918 123.038 62.7753 123.5 61.6113 123.5H34.3887C33.2247 123.5 32.1082 123.038 31.2852 122.215C30.4621 121.392 30.0001 120.275 30 119.111ZM52.3887 91.3887V101.111H61.6113V102.111H51.3887V92.3887H34.8887V118.611H61.6113V119.611H33.8887V91.3887H52.3887ZM51.8887 111.833V112.833H38.7773V115.723H51.8887V116.723H37.7773V111.833H51.8887ZM57.7227 105V106H38.7773V108.889H57.7227V109.889H37.7773V105H57.7227ZM31 119.111C31.0001 120.01 31.3567 120.872 31.9922 121.508C32.6277 122.143 33.49 122.5 34.3887 122.5H61.6113C62.51 122.5 63.3723 122.143 64.0078 121.508C64.6433 120.872 64.9999 120.01 65 119.111V99.874L53.626 88.5H34.3887C33.49 88.5001 32.6277 88.8567 31.9922 89.4922C31.3567 90.1277 31.0001 90.99 31 91.8887V119.111Z"
  />
</svg>