<svg viewBox="0 0 300 141">

  <path
    d="M213.707 106.796C213.707 106.091 213.886 105.503 214.2 105.031C214.511 104.565 214.919 104.266 215.299 104.076C215.676 103.888 216.042 103.798 216.306 103.754C216.44 103.732 216.554 103.72 216.638 103.714C216.68 103.711 216.715 103.709 216.741 103.708C216.754 103.708 216.765 103.708 216.774 103.708C216.779 103.708 216.784 103.707 216.787 103.707H216.795C216.795 103.707 216.796 103.727 216.796 104.607L216.795 103.707H288.204C288.908 103.707 289.496 103.886 289.968 104.2C290.434 104.511 290.734 104.919 290.924 105.299C291.112 105.676 291.201 106.042 291.245 106.306C291.267 106.44 291.279 106.554 291.285 106.638C291.288 106.68 291.29 106.715 291.291 106.741C291.291 106.754 291.292 106.765 291.292 106.774V106.795C291.291 106.795 291.263 106.796 290.392 106.796L291.292 106.795V138.137C291.292 138.841 291.113 139.43 290.799 139.901C290.488 140.367 290.08 140.666 289.7 140.856C289.324 141.045 288.957 141.135 288.693 141.179C288.56 141.201 288.446 141.212 288.362 141.218C288.32 141.221 288.285 141.223 288.259 141.224C288.245 141.224 288.234 141.224 288.225 141.225H288.205C288.205 141.225 288.204 141.225 288.204 140.325L288.205 141.225H216.796C216.091 141.225 215.503 141.046 215.031 140.731C214.565 140.421 214.266 140.013 214.076 139.633C213.888 139.256 213.798 138.891 213.754 138.627C213.732 138.493 213.72 138.379 213.714 138.295C213.711 138.253 213.709 138.218 213.708 138.191C213.708 138.178 213.708 138.166 213.708 138.157C213.708 138.153 213.707 138.149 213.707 138.146V106.796ZM215.508 138.137C215.508 138.143 215.509 138.154 215.51 138.167C215.512 138.203 215.518 138.26 215.529 138.331C215.554 138.477 215.601 138.658 215.686 138.828C215.769 138.995 215.88 139.135 216.029 139.234C216.173 139.33 216.406 139.425 216.796 139.425H288.198C288.204 139.425 288.216 139.424 288.233 139.423C288.269 139.42 288.327 139.415 288.397 139.403C288.544 139.379 288.725 139.331 288.896 139.246C289.062 139.163 289.201 139.052 289.301 138.902C289.397 138.758 289.492 138.526 289.492 138.137V106.801C289.492 106.795 289.491 106.783 289.49 106.766C289.488 106.73 289.482 106.673 289.47 106.602C289.445 106.455 289.399 106.274 289.313 106.104C289.23 105.937 289.119 105.798 288.97 105.698C288.826 105.602 288.593 105.508 288.204 105.508H216.801C216.795 105.508 216.783 105.509 216.766 105.51C216.73 105.512 216.672 105.517 216.602 105.529C216.455 105.554 216.274 105.6 216.104 105.686C215.937 105.769 215.798 105.88 215.698 106.029C215.602 106.173 215.508 106.406 215.508 106.796V138.137Z"
  />


  <path
    d="M232.938 135.318L232.86 135.313C232.507 135.266 232.5 134.896 232.5 134.881V131.082C232.5 130.649 232.93 130.646 232.938 130.646H271.878C272.307 130.646 272.315 131.067 272.315 131.082V134.881L272.311 134.957C272.264 135.312 271.891 135.318 271.878 135.318H232.938ZM233.5 134.318H271.315V131.646H233.5V134.318Z"
  />


  <path
    d="M275.088 135.318L275.011 135.313C274.658 135.266 274.651 134.896 274.65 134.881V131.082C274.651 130.649 275.08 130.646 275.088 130.646H285.116C285.546 130.646 285.554 131.067 285.554 131.082V134.881L285.549 134.957C285.501 135.318 285.116 135.318 285.116 135.318H275.088ZM275.65 134.318H284.554V131.646H275.65V134.318Z"
  />


  <path
    d="M219.789 135.318L219.712 135.313C219.359 135.266 219.352 134.896 219.352 134.881V131.082C219.352 130.649 219.781 130.646 219.789 130.646H229.817C230.247 130.646 230.255 131.067 230.255 131.082V134.881L230.25 134.957C230.202 135.318 229.817 135.318 229.817 135.318H219.789ZM220.352 134.318H229.255V131.646H220.352V134.318Z"
  />


  <path
    d="M240.04 128.309L239.964 128.304C239.611 128.257 239.604 127.886 239.604 127.871V124.072C239.604 123.643 240.025 123.636 240.04 123.636H243.839C244.268 123.636 244.276 124.057 244.276 124.072V127.871L244.271 127.947C244.225 128.301 243.854 128.308 243.839 128.309H240.04ZM240.604 127.309H243.276V124.636H240.604V127.309Z"
  />


  <path
    d="M233.031 128.309L232.954 128.304C232.601 128.256 232.594 127.886 232.594 127.871V124.072C232.594 123.64 233.024 123.636 233.031 123.636H236.829C237.258 123.636 237.266 124.057 237.267 124.072V127.871L237.262 127.947C237.214 128.308 236.829 128.309 236.829 128.309H233.031ZM233.594 127.309H236.267V124.636H233.594V127.309Z"
  />


  <path
    d="M219.789 128.309L219.712 128.304C219.359 128.256 219.352 127.886 219.352 127.871V124.072C219.352 123.64 219.781 123.636 219.789 123.636H229.817C230.247 123.636 230.255 124.057 230.255 124.072V127.871L230.25 127.947C230.202 128.308 229.817 128.309 229.817 128.309H219.789ZM220.352 127.309H229.255V124.636H220.352V127.309Z"
  />


  <path
    d="M247.051 128.309L246.974 128.304C246.62 128.256 246.613 127.886 246.613 127.871V124.072C246.614 123.64 247.043 123.636 247.051 123.636H250.849C251.278 123.636 251.286 124.057 251.286 124.072V127.871L251.281 127.947C251.234 128.308 250.849 128.309 250.849 128.309H247.051ZM247.613 127.309H250.286V124.636H247.613V127.309Z"
  />


  <path
    d="M254.06 128.309L253.983 128.304C253.63 128.257 253.623 127.886 253.623 127.871V124.072C253.623 123.643 254.045 123.636 254.06 123.636H257.858C258.288 123.636 258.296 124.057 258.296 124.072V127.871L258.291 127.947C258.244 128.301 257.873 128.308 257.858 128.309H254.06ZM254.623 127.309H257.296V124.636H254.623V127.309Z"
  />


  <path
    d="M261.068 128.309L260.991 128.304C260.638 128.256 260.631 127.886 260.631 127.871V124.072C260.631 123.64 261.061 123.636 261.068 123.636H264.866C265.295 123.636 265.304 124.057 265.304 124.072V127.871L265.299 127.947C265.251 128.308 264.866 128.309 264.866 128.309H261.068ZM261.631 127.309H264.304V124.636H261.631V127.309Z"
  />

  <path
    d="M268.077 128.309L268.001 128.304C267.648 128.257 267.641 127.886 267.641 127.871V124.072C267.641 123.643 268.062 123.636 268.077 123.636H271.876C272.305 123.636 272.313 124.057 272.313 124.072V127.871L272.309 127.947C272.262 128.301 271.891 128.308 271.876 128.309H268.077ZM268.641 127.309H271.313V124.636H268.641V127.309Z"
  />


  <path
    d="M275.088 128.309L275.011 128.304C274.658 128.257 274.651 127.886 274.65 127.871V124.072C274.651 123.64 275.08 123.636 275.088 123.636H285.21C285.639 123.636 285.647 124.057 285.647 124.072V127.871L285.643 127.947C285.595 128.308 285.21 128.309 285.21 128.309H275.088ZM275.65 127.309H284.647V124.636H275.65V127.309Z"
  />

  <path
    d="M236.924 121.299L236.847 121.294C236.493 121.247 236.486 120.876 236.486 120.861V117.062C236.487 116.63 236.916 116.626 236.924 116.626H240.722C241.152 116.626 241.159 117.048 241.159 117.062V120.861L241.154 120.938C241.106 121.298 240.722 121.299 240.722 121.299H236.924ZM237.486 120.299H240.159V117.626H237.486V120.299Z"
  />

  <path
    d="M229.916 121.299L229.839 121.294C229.486 121.247 229.479 120.876 229.479 120.861V117.062C229.479 116.63 229.908 116.626 229.916 116.626H233.714C234.144 116.626 234.151 117.048 234.151 117.062V120.861L234.146 120.938C234.099 121.298 233.714 121.299 233.714 121.299H229.916ZM230.479 120.299H233.151V117.626H230.479V120.299Z"
  />

  <path
    d="M219.789 121.299L219.712 121.294C219.359 121.247 219.352 120.876 219.352 120.861V117.062C219.352 116.63 219.781 116.626 219.789 116.626H226.702C227.132 116.626 227.14 117.048 227.14 117.062V120.861L227.135 120.938C227.087 121.298 226.702 121.299 226.702 121.299H219.789ZM220.352 120.299H226.14V117.626H220.352V120.299Z"
  />

  <path
    d="M243.934 121.299L243.856 121.294C243.503 121.247 243.496 120.876 243.496 120.861V117.062C243.496 116.63 243.926 116.626 243.934 116.626H247.731C248.161 116.626 248.169 117.048 248.169 117.062V120.861L248.164 120.938C248.116 121.298 247.731 121.299 247.731 121.299H243.934ZM244.496 120.299H247.169V117.626H244.496V120.299Z"
  />

  <path
    d="M250.944 121.299L250.868 121.294C250.515 121.247 250.508 120.876 250.508 120.861V117.062C250.508 116.634 250.929 116.626 250.944 116.626H254.743C255.173 116.626 255.181 117.048 255.181 117.062V120.861L255.176 120.938C255.129 121.291 254.758 121.299 254.743 121.299H250.944ZM251.508 120.299H254.181V117.626H251.508V120.299Z"
  />

  <path
    d="M257.953 121.299L257.876 121.294C257.523 121.247 257.516 120.876 257.516 120.861V117.062C257.516 116.63 257.946 116.626 257.953 116.626H261.751C262.18 116.626 262.188 117.048 262.188 117.062V120.861L262.184 120.938C262.136 121.299 261.751 121.299 261.751 121.299H257.953ZM258.516 120.299H261.188V117.626H258.516V120.299Z"
  />

  <path
    d="M264.962 121.299L264.886 121.294C264.533 121.247 264.526 120.876 264.525 120.861V117.062C264.526 116.634 264.947 116.626 264.962 116.626H268.761C269.19 116.626 269.198 117.048 269.198 117.062V120.861L269.193 120.938C269.146 121.291 268.775 121.299 268.761 121.299H264.962ZM265.525 120.299H268.198V117.626H265.525V120.299Z"
  />

  <path
    d="M271.973 121.299L271.896 121.294C271.542 121.247 271.535 120.876 271.535 120.861V117.062C271.535 116.63 271.965 116.626 271.973 116.626H275.771C276.2 116.626 276.208 117.048 276.208 117.062V120.861L276.203 120.938C276.155 121.299 275.771 121.299 275.771 121.299H271.973ZM272.535 120.299H275.208V117.626H272.535V120.299Z"
  />

  <path
    d="M278.981 121.299L278.905 121.294C278.552 121.247 278.545 120.876 278.545 120.861V117.062C278.545 116.634 278.967 116.626 278.981 116.626H285.21C285.639 116.626 285.647 117.048 285.647 117.062V120.861L285.643 120.938C285.596 121.292 285.223 121.299 285.21 121.299H278.981ZM279.545 120.299H284.647V117.626H279.545V120.299Z"
  />

  <path
    d="M253.886 114.288C253.449 114.288 253.449 113.851 253.449 113.851V110.053C253.449 109.623 253.871 109.615 253.886 109.615H257.685C258.118 109.615 258.122 110.045 258.122 110.053V113.851L258.117 113.928C258.069 114.288 257.685 114.288 257.685 114.288H253.886ZM254.449 113.288H257.122V110.615H254.449V113.288Z"
  />

  <path
    d="M247.065 114.288C246.629 114.288 246.629 113.851 246.629 113.851V110.053C246.629 109.623 247.05 109.615 247.065 109.615H250.864C251.297 109.615 251.302 110.045 251.302 110.053V113.851L251.297 113.928C251.249 114.288 250.864 114.288 250.864 114.288H247.065ZM247.629 113.288H250.302V110.615H247.629V113.288Z"
  />

  <path
    d="M240.248 114.288C239.811 114.288 239.811 113.851 239.811 113.851V110.053C239.811 109.619 240.24 109.615 240.248 109.615H244.046C244.479 109.615 244.483 110.045 244.483 110.053V113.851L244.479 113.928C244.431 114.288 244.046 114.288 244.046 114.288H240.248ZM240.811 113.288H243.483V110.615H240.811V113.288Z"
  />

  <path
    d="M233.43 114.288C232.992 114.288 232.992 113.851 232.992 113.851V110.053C232.992 109.619 233.422 109.615 233.43 109.615H237.228C237.661 109.615 237.665 110.045 237.665 110.053V113.851L237.66 113.928C237.612 114.288 237.228 114.288 237.228 114.288H233.43ZM233.992 113.288H236.665V110.615H233.992V113.288Z"
  />

  <path
    d="M226.609 114.288C226.172 114.288 226.172 113.851 226.172 113.851V110.053C226.172 109.619 226.602 109.615 226.609 109.615H230.407C230.841 109.615 230.845 110.045 230.845 110.053V113.851C230.845 114.288 230.407 114.288 230.407 114.288H226.609ZM227.172 113.288H229.845V110.615H227.172V113.288Z"
  />

  <path
    d="M219.789 114.288C219.352 114.288 219.352 113.851 219.352 113.851V110.053C219.352 109.619 219.781 109.615 219.789 109.615H223.587C224.021 109.615 224.024 110.045 224.024 110.053V113.851C224.024 114.288 223.587 114.288 223.587 114.288H219.789ZM220.352 113.288H223.024V110.615H220.352V113.288Z"
  />

  <path
    d="M260.704 114.288C260.268 114.288 260.268 113.851 260.268 113.851V110.053C260.268 109.623 260.689 109.615 260.704 109.615H264.503C264.936 109.616 264.94 110.045 264.94 110.053V113.851L264.936 113.928C264.889 114.281 264.518 114.288 264.503 114.288H260.704ZM261.268 113.288H263.94V110.615H261.268V113.288Z"
  />

  <path
    d="M267.525 114.288C267.088 114.288 267.088 113.851 267.088 113.851V110.053C267.088 109.619 267.518 109.615 267.525 109.615H271.323C271.757 109.616 271.761 110.045 271.761 110.053V113.851L271.756 113.928C271.709 114.281 271.338 114.288 271.323 114.288H267.525ZM268.088 113.288H270.761V110.615H268.088V113.288Z"
  />

  <path
    d="M274.346 114.288C273.908 114.288 273.908 113.851 273.908 113.851V110.053C273.908 109.619 274.338 109.615 274.346 109.615H278.144C278.577 109.616 278.581 110.045 278.581 110.053V113.851L278.576 113.928C278.529 114.281 278.158 114.288 278.144 114.288H274.346ZM274.908 113.288H277.581V110.615H274.908V113.288Z"
  />

  <path
    d="M281.164 114.288C280.727 114.288 280.727 113.851 280.727 113.851V110.053C280.727 109.619 281.156 109.615 281.164 109.615H284.962C285.395 109.615 285.399 110.045 285.399 110.053V113.851L285.395 113.928C285.347 114.288 284.962 114.288 284.962 114.288H281.164ZM281.727 113.288H284.399V110.615H281.727V113.288Z"
  />
  <path
    d="M266.333 95V96H237.67V95H266.333ZM271.004 90.3301V5.66992C271.004 3.089 268.914 1 266.333 1H237.67C235.093 1.00016 233 3.08962 233 5.66992V90.3301C233 92.9104 235.093 94.9998 237.67 95V96C234.639 95.9998 232.16 93.6193 232.008 90.6221L232 90.3301V5.66992C232 2.53681 234.541 0.000163918 237.67 0H266.333C269.466 0 272.004 2.53671 272.004 5.66992V90.3301L271.996 90.6221C271.844 93.6194 269.368 96 266.333 96V95C268.914 95 271.004 92.911 271.004 90.3301ZM258.504 66.502C258.504 63.0225 255.768 60.182 252.336 60.0078L252.002 59.999C248.415 59.999 245.503 62.9103 245.503 66.502L245.512 66.8359C245.68 70.1574 248.346 72.8225 251.667 72.9912L252.002 73C255.477 72.9998 258.322 70.2681 258.496 66.8359L258.504 66.502ZM262.256 28.501H242.254V32.5029H262.256V28.501ZM262.256 16.502H242.254V20.499H262.256V16.502ZM259.504 66.502C259.504 70.6423 256.141 73.9998 252.002 74C247.862 74 244.503 70.6416 244.503 66.502C244.503 62.3584 247.862 58.999 252.002 58.999C256.141 58.9992 259.504 62.3577 259.504 66.502ZM263.256 33.5029H241.254V27.501H263.256V33.5029ZM263.256 21.499H241.254V15.502H263.256V21.499Z"
  />
  <path
    d="M200.216 2.09961C200.216 1.49222 199.724 1 199.116 1H10.0996C9.49222 1 9 1.49222 9 2.09961V121.08C9.00012 121.687 9.49229 122.179 10.0996 122.179H199.116C199.724 122.179 200.216 121.687 200.216 121.08V2.09961ZM201.216 121.08C201.216 122.24 200.276 123.179 199.116 123.179H10.0996C8.94001 123.179 8.00012 122.24 8 121.08V2.09961C8 0.939937 8.93994 0 10.0996 0H199.116C200.276 0 201.216 0.939937 201.216 2.09961V121.08Z"
  />
  <path
    d="M115.739 122.237C116.015 122.237 116.239 122.461 116.239 122.737V135.15C116.239 135.427 116.015 135.65 115.739 135.65H93.4785C93.2024 135.65 92.9785 135.427 92.9785 135.15V122.737C92.9785 122.461 93.2024 122.237 93.4785 122.237H115.739ZM93.9785 134.65H115.239V123.237H93.9785V134.65Z"
  />
  <path
    d="M131.369 134.649C131.503 134.649 131.631 134.703 131.724 134.798L137.01 140.148C137.151 140.292 137.193 140.507 137.115 140.693C137.037 140.879 136.855 141 136.653 141H72.5604C72.366 141 72.1893 140.887 72.1072 140.711C72.0253 140.535 72.0527 140.327 72.1776 140.179L76.6707 134.828C76.7656 134.715 76.906 134.65 77.0535 134.649H131.369ZM73.6326 140H135.457L131.16 135.649H77.2869L73.6326 140Z"
  />
  <path
    d="M195.609 7.27734C195.609 6.66996 195.117 6.17773 194.51 6.17773H14.9434C14.336 6.17773 13.8438 6.66996 13.8438 7.27734V115.88C13.8438 116.487 14.336 116.979 14.9434 116.979H194.51C195.117 116.979 195.609 116.487 195.609 115.88V7.27734ZM196.609 115.88C196.609 117.04 195.669 117.979 194.51 117.979H14.9434C13.7837 117.979 12.8438 117.04 12.8438 115.88V7.27734C12.8438 6.11767 13.7837 5.17773 14.9434 5.17773H194.51C195.669 5.17773 196.609 6.11767 196.609 7.27734V115.88Z"
  />
  <path d="M89.4131 21.8975V22.8975H66.8047V21.8975H89.4131Z" />
  <path d="M96.3701 27.1143V28.1143H66.8047V27.1143H96.3701Z" />
  <path d="M116.368 32.7666L116.368 33.7666L73.7598 33.7666L73.7598 32.7666L116.368 32.7666Z"
  />
  <path d="M108.542 37.9844L108.542 38.9844L73.7598 38.9844L73.7598 37.9844L108.542 37.9844Z"
  />
  <path d="M131.153 43.2012L131.153 44.2012L81.5879 44.2012L81.5879 43.2012L131.153 43.2012Z"
  />
  <path d="M145.066 48.418L145.066 49.418L81.5879 49.418L81.5879 48.418L145.066 48.418Z"
  />
  <path d="M133.762 53.6357L133.762 54.6357L81.5879 54.6357L81.5879 53.6357L133.762 53.6357Z"
  />
  <path d="M153.762 58.8535L153.762 59.8535L81.5879 59.8535L81.5879 58.8535L153.762 58.8535Z"
  />
  <path d="M138.979 64.0713L138.979 65.0713L81.5879 65.0713L81.5879 64.0713L138.979 64.0713Z"
  />
  <path d="M119.849 69.2881L119.849 70.2881L81.5879 70.2881L81.5879 69.2881L119.849 69.2881Z"
  />
  <path d="M133.762 74.5059L133.762 75.5059L81.5879 75.5059L81.5879 74.5059L133.762 74.5059Z"
  />
  <path d="M141.586 79.7227L141.586 80.7227L73.7598 80.7227L73.7598 79.7227L141.586 79.7227Z"
  />
  <path d="M128.542 84.9404L128.542 85.9404L73.7598 85.9404L73.7598 84.9404L128.542 84.9404Z"
  />
  <path d="M105.934 90.1572L105.934 91.1572L73.7598 91.1572L73.7598 90.1572L105.934 90.1572Z"
  />
  <path d="M137.239 95.375L137.239 96.375L66.8047 96.375L66.8047 95.375L137.239 95.375Z"
  />
  <path d="M100.718 100.593L100.718 101.593L66.8047 101.593L66.8047 100.593L100.718 100.593Z"
  />
  <path
    d="M68.8965 9.70703L65.7715 12.8311L68.8965 15.9561L68.543 16.3096L68.1895 16.6641L64.3574 12.832L68.1895 9L68.8965 9.70703Z"
  />
  <path
    d="M78.625 15.957L81.75 12.833L78.625 9.70801L78.9785 9.35449L79.332 9L83.1641 12.832L79.332 16.6641L78.625 15.957Z"
  />
  <path
    d="M78.2676 113.957L81.3926 110.833L78.2676 107.708L78.6211 107.354L78.9746 107L82.8066 110.832L78.9746 114.664L78.2676 113.957Z"
  />
  <path
    d="M68.5391 107.708L65.4141 110.832L68.5391 113.957L68.1855 114.311L67.832 114.665L64 110.833L67.832 107.001L68.5391 107.708Z"
  />
  <path
    d="M76.3643 9.61035L72.4512 16.1328L72.0225 15.875L71.5938 15.6182L75.5068 9.09668L76.3643 9.61035Z"
  />
  <path
    d="M76.0068 107.611L72.0938 114.134L71.665 113.876L71.2363 113.619L75.1494 107.098L76.0068 107.611Z"
  />
  <path d="M56 9V115H55V9H56Z" />
</svg>