<svg viewBox="0 0 300 141">
  <path
    d="M280.164 65.8008V66.8008H237.836V65.8008H280.164ZM283.5 62.4629V4.83789C283.5 2.99402 282.007 1.5 280.164 1.5H237.836C235.995 1.50008 234.5 2.99437 234.5 4.83789V62.4629C234.5 64.3064 235.995 65.8008 237.836 65.8008V66.8008L237.613 66.7949C235.397 66.6826 233.618 64.9037 233.506 62.6855L233.5 62.4629V4.83789C233.5 2.44237 235.442 0.500078 237.836 0.5H280.164C282.56 0.5 284.5 2.44233 284.5 4.83789V62.4629L284.494 62.6855C284.378 64.9775 282.485 66.8008 280.164 66.8008V65.8008C282.007 65.8008 283.5 64.3067 283.5 62.4629ZM261.38 62.208C261.38 61.1761 260.544 60.3379 259.51 60.3379C258.478 60.338 257.641 61.1762 257.641 62.208L257.65 62.3994C257.74 63.2818 258.44 63.9803 259.319 64.0693L259.51 64.0791C260.479 64.0791 261.274 63.3447 261.37 62.3994L261.38 62.208ZM262.38 62.208C262.379 63.7952 261.097 65.0791 259.51 65.0791C257.926 65.079 256.641 63.796 256.641 62.208C256.641 60.6239 257.926 59.338 259.51 59.3379C261.097 59.3379 262.38 60.6245 262.38 62.208Z"
  />
  <path
    d="M279.832 5.20215C279.832 4.95874 279.635 4.76178 279.392 4.76172H238.425C238.181 4.76172 237.984 4.9587 237.984 5.20215V57.1836C237.984 57.427 238.181 57.624 238.425 57.624H279.392C279.635 57.624 279.832 57.427 279.832 57.1836V5.20215ZM280.832 57.1836C280.832 57.9793 280.187 58.624 279.392 58.624H238.425C237.629 58.624 236.984 57.9793 236.984 57.1836V5.20215C236.984 4.40642 237.629 3.76172 238.425 3.76172H279.392C280.187 3.76178 280.832 4.40646 280.832 5.20215V57.1836Z"
  />
  <path d="M280.372 8.72559V9.72559H237.262V8.72559H280.372Z" />
  <path
    d="M275.826 13.6123C276.102 13.6123 276.326 13.8362 276.326 14.1123V24.5869C276.326 24.8628 276.102 25.0869 275.826 25.0869H242.652C242.376 25.0869 242.153 24.8628 242.152 24.5869V14.1123C242.152 13.8362 242.376 13.6123 242.652 13.6123H275.826ZM243.152 24.0869H275.326V14.6123H243.152V24.0869Z"
  />
  <path
    d="M275.93 33.7139C276.206 33.7139 276.43 33.9377 276.43 34.2139V44.6885C276.429 44.9644 276.206 45.1885 275.93 45.1885H242.756C242.48 45.1885 242.256 44.9644 242.256 44.6885V34.2139C242.256 33.9377 242.48 33.7139 242.756 33.7139H275.93ZM243.256 44.1885H275.43V34.7139H243.256V44.1885Z"
  />
  <path
    d="M275.826 53.3711C276.102 53.3711 276.326 53.595 276.326 53.8711V58.1084C276.326 58.3845 276.102 58.6084 275.826 58.6084H242.652C242.376 58.6084 242.152 58.3845 242.152 58.1084V53.8711C242.152 53.595 242.376 53.3711 242.652 53.3711H275.826ZM243.152 57.6084H275.326V54.3711H243.152V57.6084Z"
  />
  <path
    d="M241.428 6.83217C241.428 7.2864 241.06 7.65458 240.606 7.65458C240.151 7.65458 239.783 7.2864 239.783 6.83217C239.783 6.37795 240.151 6.00977 240.606 6.00977C241.06 6.00977 241.428 6.37795 241.428 6.83217Z"
  />
  <path
    d="M244.17 6.83217C244.17 7.2864 243.802 7.65458 243.348 7.65458C242.894 7.65458 242.525 7.2864 242.525 6.83217C242.525 6.37795 242.894 6.00977 243.348 6.00977C243.802 6.00977 244.17 6.37795 244.17 6.83217Z"
  />
  <path
    d="M246.912 6.83217C246.912 7.2864 246.544 7.65458 246.09 7.65458C245.636 7.65458 245.268 7.2864 245.268 6.83217C245.268 6.37795 245.636 6.00977 246.09 6.00977C246.544 6.00977 246.912 6.37795 246.912 6.83217Z"
  />
  <path
    d="M250.855 29.5C251.132 29.5001 251.355 29.7239 251.355 30C251.355 30.2761 251.132 30.4999 250.855 30.5H242.613C242.337 30.5 242.113 30.2761 242.113 30C242.113 29.7239 242.337 29.5 242.613 29.5H250.855Z"
  />
  <path
    d="M275.519 26.3887C275.795 26.3887 276.019 26.6125 276.019 26.8887C276.019 27.1648 275.795 27.3887 275.519 27.3887H242.613C242.337 27.3887 242.113 27.1648 242.113 26.8887C242.113 26.6125 242.337 26.3887 242.613 26.3887H275.519Z"
  />
  <path
    d="M275.611 27.9443C275.887 27.9443 276.111 28.1682 276.111 28.4443C276.111 28.7205 275.887 28.9443 275.611 28.9443H242.613C242.337 28.9443 242.113 28.7205 242.113 28.4443C242.113 28.1682 242.337 27.9443 242.613 27.9443H275.611Z"
  />
  <path
    d="M250.855 49.4951C251.132 49.4952 251.355 49.7191 251.355 49.9951C251.355 50.2712 251.132 50.495 250.855 50.4951H242.613C242.337 50.4951 242.113 50.2713 242.113 49.9951C242.113 49.719 242.337 49.4951 242.613 49.4951H250.855Z"
  />
  <path
    d="M275.519 46.3838C275.795 46.3838 276.019 46.6076 276.019 46.8838C276.019 47.1599 275.795 47.3838 275.519 47.3838H242.613C242.337 47.3838 242.113 47.1599 242.113 46.8838C242.113 46.6076 242.337 46.3838 242.613 46.3838H275.519Z"
  />
  <path
    d="M275.611 47.9395C275.887 47.9395 276.111 48.1633 276.111 48.4395C276.111 48.7156 275.887 48.9395 275.611 48.9395H242.613C242.337 48.9395 242.113 48.7156 242.113 48.4395C242.113 48.1633 242.337 47.9395 242.613 47.9395H275.611Z"
  />
  <path d="M275.966 14.8486L243.051 24.959L242.758 24.0029L275.673 13.8936L275.966 14.8486Z"
  />
  <path d="M275.965 24.0029L275.674 24.959L242.523 14.8496L242.814 13.8926L275.965 24.0029Z"
  />
  <path d="M275.966 43.9873L275.673 44.9434L242.758 34.833L243.051 33.8779L275.966 43.9873Z"
  />
  <path d="M275.966 34.833L243.051 44.9434L242.758 43.9873L275.673 33.8779L275.966 34.833Z"
  />
  <path
    d="M272.188 139.5V140.5H245.812V139.5H272.188ZM275.5 136.195V84.8027C275.5 82.9912 274.009 81.5 272.188 81.5H245.812C243.988 81.5 242.5 82.9906 242.5 84.8027V136.195C242.5 138.01 243.988 139.5 245.812 139.5V140.5L245.591 140.494C243.391 140.382 241.618 138.609 241.506 136.416L241.5 136.195V84.8027C241.5 82.511 243.318 80.6217 245.591 80.5059L245.812 80.5H272.188C274.559 80.5 276.5 82.4371 276.5 84.8027V136.195L276.494 136.416C276.378 138.682 274.485 140.5 272.188 140.5V139.5C274.009 139.5 275.5 138.009 275.5 136.195ZM260.296 135.155C260.296 134.488 259.783 133.937 259.134 133.871L259.002 133.864C258.288 133.864 257.708 134.443 257.708 135.155L257.714 135.287C257.776 135.894 258.261 136.378 258.87 136.439L259.002 136.446C259.668 136.446 260.222 135.937 260.289 135.287L260.296 135.155ZM261.296 135.155C261.296 136.424 260.26 137.446 259.002 137.446C257.738 137.446 256.708 136.422 256.708 135.155C256.708 133.888 257.738 132.864 259.002 132.864C260.26 132.864 261.296 133.887 261.296 135.155Z"
  />
  <path
    d="M272.511 88.1738C272.511 88.0663 272.422 87.9767 272.312 87.9766H245.695C245.584 87.9767 245.496 88.0663 245.496 88.1738V129.79C245.496 129.898 245.584 129.988 245.695 129.988H272.312C272.423 129.988 272.511 129.898 272.511 129.79V88.1738ZM273.511 129.79C273.511 130.452 272.972 130.988 272.312 130.988H245.695C245.034 130.988 244.496 130.452 244.496 129.79V88.1738C244.496 87.5116 245.035 86.9767 245.695 86.9766H272.312C272.972 86.9767 273.511 87.5116 273.511 88.1738V129.79Z"
  />
  <path d="M273.27 92.9141V93.9141H245.064V92.9141H273.27Z" />
  <path
    d="M271.339 90.4804C271.339 91.0525 270.874 91.5164 270.3 91.5164C269.727 91.5164 269.262 91.0525 269.262 90.4804C269.262 89.9083 269.727 89.4443 270.3 89.4443H270.301C270.875 89.4443 271.339 89.9076 271.339 90.4804Z"
  />
  <path
    d="M269.501 96.8555C269.777 96.8557 270.001 97.0794 270.001 97.3555V112.691C270.001 112.967 269.777 113.191 269.501 113.191H248.338C248.062 113.191 247.838 112.968 247.838 112.691V97.3555C247.838 97.0793 248.062 96.8555 248.338 96.8555H269.501ZM248.838 112.191H269.001V97.8555H248.838V112.191Z"
  />
  <path
    d="M269.476 121.982C269.752 121.982 269.976 122.206 269.976 122.482C269.976 122.759 269.752 122.982 269.476 122.982H248.438C248.161 122.982 247.938 122.759 247.938 122.482C247.938 122.206 248.161 121.982 248.438 121.982H269.476Z"
  />
  <path
    d="M269.476 115.952C269.752 115.952 269.976 116.176 269.976 116.452C269.976 116.728 269.752 116.952 269.476 116.952H248.438C248.161 116.952 247.938 116.728 247.938 116.452C247.938 116.176 248.161 115.952 248.438 115.952H269.476Z"
  />
  <path
    d="M269.476 118.967C269.752 118.967 269.976 119.191 269.976 119.467C269.976 119.743 269.752 119.967 269.476 119.967H248.438C248.161 119.967 247.938 119.743 247.938 119.467C247.938 119.191 248.161 118.967 248.438 118.967H269.476Z"
  />
  <path
    d="M259.989 124.997C260.265 124.997 260.489 125.221 260.489 125.497C260.489 125.773 260.265 125.997 259.989 125.997H248.438C248.161 125.997 247.938 125.773 247.938 125.497C247.938 125.221 248.161 124.997 248.438 124.997H259.989Z"
  />
  <path d="M269.423 112.188L268.835 112.997L248.201 97.9971L248.789 97.1885L269.423 112.188Z"
  />
  <path d="M269.478 97.5928L269.769 98L248.785 113L248.203 112.186L269.188 97.1855L269.478 97.5928Z"
  />
  <path
    d="M208.216 2.09961C208.216 1.49222 207.724 1 207.116 1H18.0996C17.4922 1 17 1.49222 17 2.09961V121.08C17.0001 121.687 17.4923 122.179 18.0996 122.179H207.116C207.724 122.179 208.216 121.687 208.216 121.08V2.09961ZM209.216 121.08C209.216 122.24 208.276 123.179 207.116 123.179H18.0996C16.94 123.179 16.0001 122.24 16 121.08V2.09961C16 0.939937 16.9399 0 18.0996 0H207.116C208.276 0 209.216 0.939937 209.216 2.09961V121.08Z"
  />
  <path
    d="M123.739 122.237C124.015 122.237 124.239 122.461 124.239 122.737V135.15C124.239 135.427 124.015 135.65 123.739 135.65H101.479C101.202 135.65 100.979 135.427 100.979 135.15V122.737C100.979 122.461 101.202 122.237 101.479 122.237H123.739ZM101.979 134.65H123.239V123.237H101.979V134.65Z"
  />
  <path
    d="M139.369 134.649C139.503 134.649 139.631 134.703 139.724 134.798L145.01 140.148C145.151 140.292 145.193 140.507 145.115 140.693C145.037 140.879 144.855 141 144.653 141H80.5604C80.366 141 80.1893 140.887 80.1072 140.711C80.0253 140.535 80.0527 140.327 80.1776 140.179L84.6707 134.828C84.7656 134.715 84.906 134.65 85.0535 134.649H139.369ZM81.6326 140H143.457L139.16 135.649H85.2869L81.6326 140Z"
  />
  <path
    d="M203.609 7.27734C203.609 6.66996 203.117 6.17773 202.51 6.17773H22.9434C22.336 6.17773 21.8438 6.66996 21.8438 7.27734V115.88C21.8438 116.487 22.336 116.979 22.9434 116.979H202.51C203.117 116.979 203.609 116.487 203.609 115.88V7.27734ZM204.609 115.88C204.609 117.04 203.669 117.979 202.51 117.979H22.9434C21.7837 117.979 20.8438 117.04 20.8438 115.88V7.27734C20.8438 6.11767 21.7837 5.17773 22.9434 5.17773H202.51C203.669 5.17773 204.609 6.11767 204.609 7.27734V115.88Z"
  />
  <path
    d="M86.8525 47.6934C87.1285 47.6936 87.3525 47.9174 87.3525 48.1934V74.0869C87.3525 74.3629 87.1284 74.5867 86.8525 74.5869H58.5176C58.2415 74.5869 58.0176 74.363 58.0176 74.0869V48.1934C58.0176 47.9172 58.2414 47.6934 58.5176 47.6934H86.8525ZM59.0176 73.5869H86.3525V48.6934H59.0176V73.5869Z"
  />
  <path
    d="M120.333 47.6934C120.609 47.6936 120.833 47.9174 120.833 48.1934V74.0869C120.833 74.3629 120.609 74.5867 120.333 74.5869H91.998C91.7219 74.5869 91.4981 74.363 91.498 74.0869V48.1934C91.498 47.9172 91.7219 47.6934 91.998 47.6934H120.333ZM92.498 73.5869H119.833V48.6934H92.498V73.5869Z"
  />
  <path
    d="M154.05 47.6934C154.326 47.6936 154.55 47.9174 154.55 48.1934V74.0869C154.55 74.3629 154.326 74.5867 154.05 74.5869H125.715C125.439 74.5869 125.215 74.363 125.215 74.0869V48.1934C125.215 47.9172 125.439 47.6934 125.715 47.6934H154.05ZM126.215 73.5869H153.55V48.6934H126.215V73.5869Z"
  />
  <path
    d="M53.648 33.2966C53.648 34.0818 53.0115 34.7183 52.2263 34.7183C51.4411 34.7183 50.8047 34.0818 50.8047 33.2966C50.8047 32.5115 51.4403 31.8758 52.2255 31.875C53.0107 31.875 53.6472 32.5115 53.648 33.2966Z"
  />
  <path
    d="M57.4761 33.2966C57.4761 34.0818 56.8396 34.7183 56.0545 34.7183C55.2693 34.7183 54.6328 34.0818 54.6328 33.2966C54.6328 32.5115 55.2685 31.8758 56.0537 31.875C56.8388 31.875 57.4753 32.5115 57.4761 33.2966Z"
  />
  <path
    d="M61.3042 33.2966C61.3042 34.0818 60.6678 34.7183 59.8826 34.7183C59.0974 34.7183 58.4609 34.0818 58.4609 33.2966C58.4609 32.5115 59.0966 31.8758 59.8818 31.875C60.667 31.875 61.3034 32.5115 61.3042 33.2966Z"
  />
  <path
    d="M165.669 29.6211C165.669 29.2713 165.386 28.9883 165.036 28.9883H47.8945C47.5448 28.9884 47.2618 29.2713 47.2617 29.6211V106.043C47.2617 106.393 47.5447 106.676 47.8945 106.676H165.036C165.386 106.676 165.669 106.393 165.669 106.043V29.6211ZM166.669 106.043C166.669 106.945 165.938 107.676 165.036 107.676H47.8945C46.9924 107.676 46.2617 106.945 46.2617 106.043V29.6211C46.2618 28.719 46.9925 27.9884 47.8945 27.9883H165.036C165.938 27.9883 166.669 28.719 166.669 29.6211V106.043Z"
  />
  <path d="M166.17 36.7617V37.7617H46.3965V36.7617H166.17Z" />
  <path
    d="M177.57 15.5049L177.727 15.5156C178.497 15.6079 179.09 16.2678 179.081 17.0596V96.916L179.071 97.1885C178.956 98.5329 177.839 99.5979 176.461 99.6211H166.612V98.6211H176.445C177.363 98.6055 178.095 97.85 178.081 96.9316V17.0518C178.085 16.792 177.904 16.572 177.659 16.5176L177.552 16.5049H59.4396L59.3166 16.5127C58.7088 16.5841 58.2421 17.1063 58.2521 17.7314V28.6133H57.2521V17.7393C57.2368 16.5242 58.207 15.5247 59.423 15.5049H177.57Z"
  />
  <path d="M178.577 23.8594V24.8594H58.0938V23.8594H178.577Z" />
  <path
    d="M64.0044 20.0627C64.0044 20.8031 63.4047 21.4028 62.6643 21.4028C61.9239 21.4028 61.3242 20.8031 61.3242 20.0627C61.3242 19.3223 61.9239 18.7227 62.6643 18.7227C63.4047 18.7227 64.0044 19.3223 64.0044 20.0627Z"
  />
  <path
    d="M67.6138 20.0627C67.6138 20.8031 67.0141 21.4028 66.2737 21.4028C65.5333 21.4028 64.9336 20.8031 64.9336 20.0627C64.9336 19.3223 65.5333 18.7227 66.2737 18.7227C67.0141 18.7227 67.6138 19.3223 67.6138 20.0627Z"
  />
  <path
    d="M71.2192 20.0627C71.2192 20.8031 70.6196 21.4028 69.8792 21.4028C69.1387 21.4028 68.5391 20.8031 68.5391 20.0627C68.5391 19.3223 69.1387 18.7227 69.8792 18.7227C70.6196 18.7227 71.2192 19.3223 71.2192 20.0627Z"
  />
  <path
    d="M72.5264 86.0859C72.8025 86.0859 73.0264 86.3098 73.0264 86.5859C73.0264 86.8621 72.8025 87.0859 72.5264 87.0859H58.5117C58.2356 87.0859 58.0117 86.8621 58.0117 86.5859C58.0117 86.3098 58.2356 86.0859 58.5117 86.0859H72.5264Z"
  />
  <path
    d="M86.2891 79.1758C86.5652 79.1758 86.7891 79.3997 86.7891 79.6758C86.7891 79.9519 86.5652 80.1757 86.2891 80.1758H58.5117C58.2356 80.1758 58.0117 79.9519 58.0117 79.6758C58.0117 79.3996 58.2356 79.1758 58.5117 79.1758H86.2891Z"
  />
  <path
    d="M83.876 82.6318C84.1521 82.6319 84.376 82.8557 84.376 83.1318C84.376 83.4079 84.1521 83.6318 83.876 83.6318H58.5117C58.2356 83.6318 58.0117 83.408 58.0117 83.1318C58.0117 82.8557 58.2356 82.6318 58.5117 82.6318H83.876Z"
  />
  <path
    d="M78.1367 89.541C78.4128 89.5411 78.6367 89.765 78.6367 90.041C78.6367 90.3171 78.4128 90.5409 78.1367 90.541H58.5117C58.2356 90.541 58.0117 90.3172 58.0117 90.041C58.0117 89.7649 58.2356 89.541 58.5117 89.541H78.1367Z"
  />
  <path
    d="M78.1367 96.4521C78.4128 96.4523 78.6367 96.6761 78.6367 96.9521C78.6367 97.2282 78.4128 97.452 78.1367 97.4521H58.5117C58.2356 97.4521 58.0117 97.2283 58.0117 96.9521C58.0117 96.676 58.2356 96.4521 58.5117 96.4521H78.1367Z"
  />
  <path
    d="M83.876 92.9971C84.1521 92.9971 84.376 93.221 84.376 93.4971C84.376 93.7732 84.1521 93.997 83.876 93.9971H58.5117C58.2356 93.9971 58.0117 93.7732 58.0117 93.4971C58.0117 93.2209 58.2356 92.9971 58.5117 92.9971H83.876Z"
  />
  <path
    d="M106.528 86.0859C106.804 86.0859 107.028 86.3098 107.028 86.5859C107.028 86.8621 106.804 87.0859 106.528 87.0859H92.5137C92.2375 87.0859 92.0137 86.8621 92.0137 86.5859C92.0137 86.3098 92.2375 86.0859 92.5137 86.0859H106.528Z"
  />
  <path
    d="M120.291 79.1758C120.567 79.1758 120.791 79.3997 120.791 79.6758C120.791 79.9519 120.567 80.1757 120.291 80.1758H92.5137C92.2375 80.1758 92.0137 79.9519 92.0137 79.6758C92.0137 79.3996 92.2375 79.1758 92.5137 79.1758H120.291Z"
  />
  <path
    d="M117.878 82.6318C118.154 82.6319 118.378 82.8557 118.378 83.1318C118.378 83.4079 118.154 83.6318 117.878 83.6318H92.5137C92.2375 83.6318 92.0137 83.408 92.0137 83.1318C92.0137 82.8557 92.2375 82.6318 92.5137 82.6318H117.878Z"
  />
  <path
    d="M112.139 89.541C112.415 89.5411 112.639 89.765 112.639 90.041C112.639 90.3171 112.415 90.5409 112.139 90.541H92.5137C92.2375 90.541 92.0137 90.3172 92.0137 90.041C92.0137 89.7649 92.2375 89.541 92.5137 89.541H112.139Z"
  />
  <path
    d="M112.139 96.4521C112.415 96.4523 112.639 96.6761 112.639 96.9521C112.639 97.2282 112.415 97.452 112.139 97.4521H92.5137C92.2375 97.4521 92.0137 97.2283 92.0137 96.9521C92.0137 96.676 92.2375 96.4521 92.5137 96.4521H112.139Z"
  />
  <path
    d="M117.878 92.9971C118.154 92.9971 118.378 93.221 118.378 93.4971C118.378 93.7732 118.154 93.997 117.878 93.9971H92.5137C92.2375 93.9971 92.0137 93.7732 92.0137 93.4971C92.0137 93.2209 92.2375 92.9971 92.5137 92.9971H117.878Z"
  />
  <path
    d="M139.72 86.0859C139.996 86.0859 140.22 86.3098 140.22 86.5859C140.22 86.8621 139.996 87.0859 139.72 87.0859H125.705C125.429 87.0859 125.205 86.8621 125.205 86.5859C125.205 86.3098 125.429 86.0859 125.705 86.0859H139.72Z"
  />
  <path
    d="M153.482 79.1768C153.759 79.1768 153.982 79.4007 153.982 79.6768C153.982 79.9529 153.759 80.1767 153.482 80.1768H125.705C125.429 80.1768 125.205 79.9529 125.205 79.6768C125.205 79.4006 125.429 79.1768 125.705 79.1768H153.482Z"
  />
  <path
    d="M151.069 82.6318C151.345 82.6319 151.569 82.8557 151.569 83.1318C151.569 83.4079 151.345 83.6318 151.069 83.6318H125.705C125.429 83.6318 125.205 83.408 125.205 83.1318C125.205 82.8557 125.429 82.6318 125.705 82.6318H151.069Z"
  />
  <path
    d="M145.33 89.541C145.606 89.5411 145.83 89.765 145.83 90.041C145.83 90.3171 145.606 90.5409 145.33 90.541H125.705C125.429 90.541 125.205 90.3172 125.205 90.041C125.205 89.7649 125.429 89.541 125.705 89.541H145.33Z"
  />
  <path d="M86.8359 48.8809L58.9824 74.1689L58.3105 73.4287L86.1641 48.1406L86.8359 48.8809Z"
  />
  <path d="M86.8359 73.4287L86.1641 74.1689L58.3105 48.8809L58.9824 48.1406L86.8359 73.4287Z"
  />
  <path d="M120.553 73.4287L119.881 74.1689L92.0273 48.8809L92.6992 48.1406L120.553 73.4287Z"
  />
  <path d="M120.553 48.8809L92.6992 74.1689L92.0273 73.4287L119.881 48.1406L120.553 48.8809Z"
  />
  <path d="M154.27 73.4287L153.598 74.1689L125.744 48.8809L126.416 48.1406L154.27 73.4287Z"
  />
  <path d="M154.27 48.8809L126.416 74.1689L125.744 73.4287L153.598 48.1406L154.27 48.8809Z"
  />
</svg>