<svg width="23" height="23" viewBox="0 0 23 23" fill="none" xmlns="http://www.w3.org/2000/svg">
<path d="M0.75 11.25C0.75 14.0348 1.85625 16.7055 3.82538 18.6746C5.79451 20.6438 8.46523 21.75 11.25 21.75C14.0348 21.75 16.7055 20.6438 18.6746 18.6746C20.6438 16.7055 21.75 14.0348 21.75 11.25C21.75 8.46523 20.6438 5.79451 18.6746 3.82538C16.7055 1.85625 14.0348 0.75 11.25 0.75C8.46523 0.75 5.79451 1.85625 3.82538 3.82538C1.85625 5.79451 0.75 8.46523 0.75 11.25Z" stroke="white" stroke-width="1.5" stroke-linejoin="round"/>
<path d="M6.75 11.25C6.75 8.46523 7.22411 5.79451 8.06802 3.82538C8.91193 1.85625 10.0565 0.75 11.25 0.75C12.4435 0.75 13.5881 1.85625 14.432 3.82538C15.2759 5.79451 15.75 8.46523 15.75 11.25C15.75 14.0348 15.2759 16.7055 14.432 18.6746C13.5881 20.6438 12.4435 21.75 11.25 21.75C10.0565 21.75 8.91193 20.6438 8.06802 18.6746C7.22411 16.7055 6.75 14.0348 6.75 11.25Z" stroke="white" stroke-width="1.5" stroke-linejoin="round"/>
<path d="M1.5 14.75H21M1.5 7.75H21" stroke="white" stroke-width="1.5" stroke-linecap="round"/>
</svg>
