<svg width="20" height="20" viewBox="0 0 20 20" fill="none" xmlns="http://www.w3.org/2000/svg">
<path fill-rule="evenodd" clip-rule="evenodd" d="M9.98208 6.12364e-05C7.61194 0.000388793 5.31922 0.866648 3.51405 2.44388C1.70888 4.02111 0.509019 6.20643 0.129108 8.60891C-0.250803 11.0114 0.214016 13.4743 1.44042 15.5571C2.66682 17.6399 4.5748 19.2066 6.82305 19.9771C7.32222 20.0723 7.53615 19.7575 7.53615 19.4865V17.7436C4.76219 18.3588 4.17745 16.3669 4.17745 16.3669C3.98238 15.7392 3.57182 15.2057 3.02222 14.8657C2.11659 14.2359 3.09353 14.2433 3.09353 14.2433C3.40987 14.2891 3.71181 14.4087 3.97629 14.5927C4.24077 14.7767 4.4608 15.0204 4.61957 15.3051C4.89578 15.8138 5.35744 16.1891 5.90303 16.3484C6.44862 16.5077 7.03348 16.438 7.52902 16.1545C7.56928 15.635 7.79234 15.1482 8.15655 14.7852C5.94594 14.5215 3.6141 13.6428 3.6141 9.71765C3.59793 8.69822 3.96582 7.71176 4.64096 6.96421C4.33537 6.0812 4.3711 5.11148 4.7408 4.25471C4.7408 4.25471 5.57512 3.97644 7.48623 5.3019C9.12028 4.84417 10.8439 4.84417 12.4779 5.3019C14.3819 3.97644 15.2162 4.25471 15.2162 4.25471C15.5859 5.11148 15.6217 6.0812 15.3161 6.96421C15.9912 7.71176 16.3591 8.69822 16.3429 9.71765C16.3429 13.6574 14.0111 14.5215 11.7862 14.7778C12.0246 15.0259 12.2083 15.3236 12.3252 15.6507C12.4421 15.9779 12.4893 16.327 12.4637 16.6745V19.4865C12.4637 19.8234 12.6419 20.0797 13.1768 19.9771C15.428 19.2057 17.3379 17.6359 18.5641 15.5493C19.7904 13.4627 20.2526 10.9957 19.868 8.59078C19.4834 6.18586 18.2772 4.00029 16.4655 2.42599C14.6538 0.851695 12.3553 -0.00835834 9.98208 6.12364e-05Z" fill="white"/>
</svg>
