<svg width="22" height="22" viewBox="0 0 22 22" fill="none" xmlns="http://www.w3.org/2000/svg">
<path fill-rule="evenodd" clip-rule="evenodd" d="M10.9997 1.375C8.71465 1.3753 6.50423 2.18857 4.76387 3.66932C3.0235 5.15006 1.86672 7.20169 1.50045 9.4572C1.13418 11.7127 1.58231 14.025 2.76468 15.9803C3.94706 17.9357 5.78654 19.4066 7.95408 20.13C8.43533 20.2194 8.64158 19.9237 8.64158 19.6694V18.0331C5.9672 18.6106 5.40345 16.7406 5.40345 16.7406C5.21539 16.1513 4.81957 15.6504 4.2897 15.3312C3.41658 14.74 4.35845 14.7469 4.35845 14.7469C4.66343 14.79 4.95453 14.9022 5.20952 15.0749C5.4645 15.2477 5.67663 15.4765 5.8297 15.7437C6.096 16.2214 6.54108 16.5737 7.06709 16.7232C7.59309 16.8728 8.15696 16.8073 8.6347 16.5412C8.67352 16.0534 8.88857 15.5965 9.2397 15.2556C7.10845 15.0081 4.86033 14.1831 4.86033 10.4981C4.84474 9.54105 5.19942 8.61494 5.85033 7.91312C5.55571 7.08413 5.59015 6.17373 5.94658 5.36937C5.94658 5.36937 6.75095 5.10812 8.59345 6.3525C10.1688 5.92277 11.8306 5.92277 13.406 6.3525C15.2416 5.10812 16.046 5.36937 16.046 5.36937C16.4024 6.17373 16.4368 7.08413 16.1422 7.91312C16.7931 8.61494 17.1478 9.54105 17.1322 10.4981C17.1322 14.1969 14.8841 15.0081 12.7391 15.2487C12.9689 15.4816 13.146 15.7611 13.2587 16.0682C13.3714 16.3754 13.4169 16.7031 13.3922 17.0294V19.6694C13.3922 19.9856 13.5641 20.2262 14.0797 20.13C16.2501 19.4057 18.0915 17.932 19.2737 15.973C20.4559 14.014 20.9015 11.698 20.5307 9.44019C20.1599 7.18239 18.997 5.13052 17.2504 3.65253C15.5037 2.17453 13.2877 1.36709 10.9997 1.375Z" fill="#1D1D1D"/>
</svg>
