<svg width="22" height="22" viewBox="0 0 22 22" fill="none" xmlns="http://www.w3.org/2000/svg">
<path fill-rule="evenodd" clip-rule="evenodd" d="M11.0002 1.375C8.71513 1.3753 6.50472 2.18857 4.76436 3.66932C3.02399 5.15006 1.86721 7.20169 1.50094 9.4572C1.13467 11.7127 1.5828 14.025 2.76517 15.9803C3.94755 17.9357 5.78703 19.4066 7.95457 20.13C8.43582 20.2194 8.64207 19.9237 8.64207 19.6694V18.0331C5.96769 18.6106 5.40394 16.7406 5.40394 16.7406C5.21588 16.1513 4.82006 15.6504 4.29019 15.3312C3.41707 14.74 4.35894 14.7469 4.35894 14.7469C4.66392 14.79 4.95502 14.9022 5.21 15.0749C5.46499 15.2477 5.67712 15.4765 5.83019 15.7437C6.09649 16.2214 6.54157 16.5737 7.06758 16.7232C7.59358 16.8728 8.15744 16.8073 8.63519 16.5412C8.67401 16.0534 8.88906 15.5965 9.24019 15.2556C7.10894 15.0081 4.86082 14.1831 4.86082 10.4981C4.84523 9.54105 5.19991 8.61494 5.85082 7.91312C5.5562 7.08413 5.59064 6.17373 5.94707 5.36937C5.94707 5.36937 6.75144 5.10812 8.59394 6.3525C10.1693 5.92277 11.8311 5.92277 13.4064 6.3525C15.2421 5.10812 16.0464 5.36937 16.0464 5.36937C16.4029 6.17373 16.4373 7.08413 16.1427 7.91312C16.7936 8.61494 17.1483 9.54105 17.1327 10.4981C17.1327 14.1969 14.8846 15.0081 12.7396 15.2487C12.9693 15.4816 13.1465 15.7611 13.2592 16.0682C13.3719 16.3754 13.4174 16.7031 13.3927 17.0294V19.6694C13.3927 19.9856 13.5646 20.2262 14.0802 20.13C16.2506 19.4057 18.092 17.932 19.2742 15.973C20.4563 14.014 20.902 11.698 20.5312 9.44019C20.1604 7.18239 18.9975 5.13052 17.2508 3.65253C15.5042 2.17453 13.2882 1.36709 11.0002 1.375Z" fill="white"/>
</svg>
